solid OpenSCAD_Model
  facet normal 0 1 0
    outer loop
      vertex -10 -1 0
      vertex -10 -1 1
      vertex -1 -1 0
    endloop
  endfacet
  facet normal 0 1 0
    outer loop
      vertex -1 -1 0
      vertex -10 -1 1
      vertex -1 -1 1
    endloop
  endfacet
  facet normal -0.99589 -0.0905704 0
    outer loop
      vertex -10 -1 0
      vertex -9.94672 -1.5859 0
      vertex -10 -1 1
    endloop
  endfacet
  facet normal -0.99589 -0.0905704 0
    outer loop
      vertex -10 -1 1
      vertex -9.94672 -1.5859 0
      vertex -9.94672 -1.5859 1.1697
    endloop
  endfacet
  facet normal 0 0 -1
    outer loop
      vertex -10 -1 0
      vertex -1 -1 0
      vertex -9.94672 -1.5859 0
    endloop
  endfacet
  facet normal 0 0 -1
    outer loop
      vertex -3.18531 -7.77644 0
      vertex -1 -1 0
      vertex -1 -10 0
    endloop
  endfacet
  facet normal 0 0 -1
    outer loop
      vertex -2.84735 -8.5782 0
      vertex -1 -10 0
      vertex -1.46895 -9.94685 0
    endloop
  endfacet
  facet normal 0 0 -1
    outer loop
      vertex -2.6553 -8.94943 0
      vertex -1.46895 -9.94685 0
      vertex -1.85428 -9.79913 0
    endloop
  endfacet
  facet normal 0 0 -1
    outer loop
      vertex -2.43389 -9.28555 0
      vertex -1.85428 -9.79913 0
      vertex -2.17121 -9.57353 0
    endloop
  endfacet
  facet normal 0 0 -1
    outer loop
      vertex -2.84735 -8.5782 0
      vertex -1.46895 -9.94685 0
      vertex -2.6553 -8.94943 0
    endloop
  endfacet
  facet normal 0 0 -1
    outer loop
      vertex -3.0208 -8.18367 0
      vertex -1 -10 0
      vertex -2.84735 -8.5782 0
    endloop
  endfacet
  facet normal 0 0 -1
    outer loop
      vertex -3.18531 -7.77644 0
      vertex -1 -10 0
      vertex -3.0208 -8.18367 0
    endloop
  endfacet
  facet normal 0 0 -1
    outer loop
      vertex -3.34941 -7.36587 0
      vertex -1 -1 0
      vertex -3.18531 -7.77644 0
    endloop
  endfacet
  facet normal 0 0 -1
    outer loop
      vertex -6.0473 -4.26439 0
      vertex -9.94672 -1.5859 0
      vertex -5.66356 -4.46178 0
    endloop
  endfacet
  facet normal 0 0 -1
    outer loop
      vertex -3.52053 -6.96011 0
      vertex -1 -1 0
      vertex -3.34941 -7.36587 0
    endloop
  endfacet
  facet normal 0 0 -1
    outer loop
      vertex -3.70496 -6.56609 0
      vertex -1 -1 0
      vertex -3.52053 -6.96011 0
    endloop
  endfacet
  facet normal 0 0 -1
    outer loop
      vertex -3.9079 -6.1895 0
      vertex -1 -1 0
      vertex -3.70496 -6.56609 0
    endloop
  endfacet
  facet normal 0 0 -1
    outer loop
      vertex -4.1334 -5.83484 0
      vertex -1 -1 0
      vertex -3.9079 -6.1895 0
    endloop
  endfacet
  facet normal 0 0 -1
    outer loop
      vertex -4.38442 -5.50537 0
      vertex -1 -1 0
      vertex -4.1334 -5.83484 0
    endloop
  endfacet
  facet normal 0 0 -1
    outer loop
      vertex -4.66279 -5.20311 0
      vertex -1 -1 0
      vertex -4.38442 -5.50537 0
    endloop
  endfacet
  facet normal 0 0 -1
    outer loop
      vertex -4.96923 -4.9289 0
      vertex -1 -1 0
      vertex -4.66279 -5.20311 0
    endloop
  endfacet
  facet normal 0 0 -1
    outer loop
      vertex -5.30332 -4.68233 0
      vertex -1 -1 0
      vertex -4.96923 -4.9289 0
    endloop
  endfacet
  facet normal 0 0 -1
    outer loop
      vertex -9.94672 -1.5859 0
      vertex -1 -1 0
      vertex -5.30332 -4.68233 0
    endloop
  endfacet
  facet normal 0 0 -1
    outer loop
      vertex -9.94672 -1.5859 0
      vertex -5.30332 -4.68233 0
      vertex -5.66356 -4.46178 0
    endloop
  endfacet
  facet normal 0 0 -1
    outer loop
      vertex -6.45079 -4.08611 0
      vertex -9.94672 -1.5859 0
      vertex -6.0473 -4.26439 0
    endloop
  endfacet
  facet normal 0 0 -1
    outer loop
      vertex -6.86916 -3.92164 0
      vertex -9.94672 -1.5859 0
      vertex -6.45079 -4.08611 0
    endloop
  endfacet
  facet normal 0 0 -1
    outer loop
      vertex -7.29641 -3.76448 0
      vertex -9.94672 -1.5859 0
      vertex -6.86916 -3.92164 0
    endloop
  endfacet
  facet normal 0 0 -1
    outer loop
      vertex -7.72544 -3.60689 0
      vertex -9.94672 -1.5859 0
      vertex -7.29641 -3.76448 0
    endloop
  endfacet
  facet normal 0 0 -1
    outer loop
      vertex -8.14802 -3.43992 0
      vertex -9.94672 -1.5859 0
      vertex -7.72544 -3.60689 0
    endloop
  endfacet
  facet normal 0 0 -1
    outer loop
      vertex -9.94672 -1.5859 0
      vertex -8.14802 -3.43992 0
      vertex -8.55481 -3.2534 0
    endloop
  endfacet
  facet normal 0 0 -1
    outer loop
      vertex -9.94672 -1.5859 0
      vertex -8.55481 -3.2534 0
      vertex -8.93535 -3.03593 0
    endloop
  endfacet
  facet normal 0 0 -1
    outer loop
      vertex -9.94672 -1.5859 0
      vertex -8.93535 -3.03593 0
      vertex -9.27807 -2.77489 0
    endloop
  endfacet
  facet normal 0 0 -1
    outer loop
      vertex -9.94672 -1.5859 0
      vertex -9.27807 -2.77489 0
      vertex -9.57026 -2.45645 0
    endloop
  endfacet
  facet normal 0 0 -1
    outer loop
      vertex -9.94672 -1.5859 0
      vertex -9.57026 -2.45645 0
      vertex -9.79812 -2.06555 0
    endloop
  endfacet
  facet normal 0 0 -1
    outer loop
      vertex -2.6553 -8.94943 0
      vertex -1.85428 -9.79913 0
      vertex -2.43389 -9.28555 0
    endloop
  endfacet
  facet normal 1 0 0
    outer loop
      vertex -1 -10 1
      vertex -1 -10 0
      vertex -1 -1 0
    endloop
  endfacet
  facet normal 1 0 0
    outer loop
      vertex -1 -1 1.1697
      vertex -1 -10 1
      vertex -1 -1 1
    endloop
  endfacet
  facet normal 1 0 0
    outer loop
      vertex -1 -1 1
      vertex -1 -10 1
      vertex -1 -1 0
    endloop
  endfacet
  facet normal -0.0653475 0.997863 0
    outer loop
      vertex -1 -1 1.1697
      vertex -1 -1 1
      vertex -9.94672 -1.5859 1.1697
    endloop
  endfacet
  facet normal 0 0.278203 0.960522
    outer loop
      vertex -1 -1 1
      vertex -10 -1 1
      vertex -9.94672 -1.5859 1.1697
    endloop
  endfacet
  facet normal -0.0287531 0.439063 0.897996
    outer loop
      vertex -1 -1 1.1697
      vertex -9.94672 -1.5859 1.1697
      vertex -9.79812 -2.06555 1.40897
    endloop
  endfacet
  facet normal -0.955211 -0.295925 0
    outer loop
      vertex -9.94672 -1.5859 0
      vertex -9.79812 -2.06555 0
      vertex -9.94672 -1.5859 1.1697
    endloop
  endfacet
  facet normal -0.955211 -0.295925 0
    outer loop
      vertex -9.94672 -1.5859 1.1697
      vertex -9.79812 -2.06555 0
      vertex -9.79812 -2.06555 1.40897
    endloop
  endfacet
  facet normal -0.863941 -0.503592 0
    outer loop
      vertex -9.79812 -2.06555 0
      vertex -9.57026 -2.45645 0
      vertex -9.79812 -2.06555 1.40897
    endloop
  endfacet
  facet normal -0.863941 -0.503592 0
    outer loop
      vertex -9.79812 -2.06555 1.40897
      vertex -9.57026 -2.45645 0
      vertex -9.57026 -2.45645 1.70109
    endloop
  endfacet
  facet normal -0.73682 -0.676089 0
    outer loop
      vertex -9.57026 -2.45645 0
      vertex -9.27807 -2.77489 0
      vertex -9.57026 -2.45645 1.70109
    endloop
  endfacet
  facet normal -0.73682 -0.676089 0
    outer loop
      vertex -9.57026 -2.45645 1.70109
      vertex -9.27807 -2.77489 0
      vertex -9.27807 -2.77489 2.03051
    endloop
  endfacet
  facet normal -0.605927 -0.79552 0
    outer loop
      vertex -9.27807 -2.77489 2.03051
      vertex -9.27807 -2.77489 0
      vertex -8.93535 -3.03593 0
    endloop
  endfacet
  facet normal -0.605927 -0.79552 0
    outer loop
      vertex -8.93535 -3.03593 2.38288
      vertex -9.27807 -2.77489 2.03051
      vertex -8.93535 -3.03593 0
    endloop
  endfacet
  facet normal -0.49617 -0.868226 0
    outer loop
      vertex -8.93535 -3.03593 2.38288
      vertex -8.93535 -3.03593 0
      vertex -8.55481 -3.2534 0
    endloop
  endfacet
  facet normal -0.49617 -0.868226 0
    outer loop
      vertex -8.55481 -3.2534 2.74506
      vertex -8.93535 -3.03593 2.38288
      vertex -8.55481 -3.2534 0
    endloop
  endfacet
  facet normal -0.416794 -0.909001 0
    outer loop
      vertex -8.55481 -3.2534 2.74506
      vertex -8.55481 -3.2534 0
      vertex -8.14802 -3.43992 0
    endloop
  endfacet
  facet normal -0.416794 -0.909001 0
    outer loop
      vertex -8.14802 -3.43992 3.10509
      vertex -8.55481 -3.2534 2.74506
      vertex -8.14802 -3.43992 0
    endloop
  endfacet
  facet normal -0.367473 -0.930034 0
    outer loop
      vertex -8.14802 -3.43992 3.10509
      vertex -8.14802 -3.43992 0
      vertex -7.72544 -3.60689 0
    endloop
  endfacet
  facet normal -0.367473 -0.930034 0
    outer loop
      vertex -7.72544 -3.60689 3.45221
      vertex -8.14802 -3.43992 3.10509
      vertex -7.72544 -3.60689 0
    endloop
  endfacet
  facet normal -0.344791 -0.938679 0
    outer loop
      vertex -7.72544 -3.60689 3.45221
      vertex -7.72544 -3.60689 0
      vertex -7.29641 -3.76448 0
    endloop
  endfacet
  facet normal -0.344791 -0.938679 0
    outer loop
      vertex -7.29641 -3.76448 3.77687
      vertex -7.72544 -3.60689 3.45221
      vertex -7.29641 -3.76448 0
    endloop
  endfacet
  facet normal -0.345229 -0.938518 0
    outer loop
      vertex -7.29641 -3.76448 3.77687
      vertex -7.29641 -3.76448 0
      vertex -6.86916 -3.92164 0
    endloop
  endfacet
  facet normal -0.345229 -0.938518 0
    outer loop
      vertex -6.86916 -3.92164 4.07068
      vertex -7.29641 -3.76448 3.77687
      vertex -6.86916 -3.92164 0
    endloop
  endfacet
  facet normal -0.365865 -0.930668 0
    outer loop
      vertex -6.86916 -3.92164 4.07068
      vertex -6.86916 -3.92164 0
      vertex -6.45079 -4.08611 0
    endloop
  endfacet
  facet normal -0.365865 -0.930668 0
    outer loop
      vertex -6.45079 -4.08611 4.32649
      vertex -6.86916 -3.92164 4.07068
      vertex -6.45079 -4.08611 0
    endloop
  endfacet
  facet normal -0.404157 -0.91469 0
    outer loop
      vertex -6.45079 -4.08611 4.32649
      vertex -6.45079 -4.08611 0
      vertex -6.0473 -4.26439 0
    endloop
  endfacet
  facet normal -0.404157 -0.91469 0
    outer loop
      vertex -6.0473 -4.26439 4.5383
      vertex -6.45079 -4.08611 4.32649
      vertex -6.0473 -4.26439 0
    endloop
  endfacet
  facet normal -0.457405 -0.889259 0
    outer loop
      vertex -6.0473 -4.26439 4.5383
      vertex -6.0473 -4.26439 0
      vertex -5.66356 -4.46178 0
    endloop
  endfacet
  facet normal -0.457405 -0.889259 0
    outer loop
      vertex -5.66356 -4.46178 4.70135
      vertex -6.0473 -4.26439 4.5383
      vertex -5.66356 -4.46178 0
    endloop
  endfacet
  facet normal -0.522157 -0.852849 0
    outer loop
      vertex -5.66356 -4.46178 4.70135
      vertex -5.66356 -4.46178 0
      vertex -5.30332 -4.68233 0
    endloop
  endfacet
  facet normal -0.522157 -0.852849 0
    outer loop
      vertex -5.30332 -4.68233 4.81204
      vertex -5.66356 -4.46178 4.70135
      vertex -5.30332 -4.68233 0
    endloop
  endfacet
  facet normal -0.593814 -0.804602 0
    outer loop
      vertex -5.30332 -4.68233 4.81204
      vertex -5.30332 -4.68233 0
      vertex -4.96923 -4.9289 0
    endloop
  endfacet
  facet normal -0.593814 -0.804602 0
    outer loop
      vertex -4.96923 -4.9289 4.86798
      vertex -5.30332 -4.68233 4.81204
      vertex -4.96923 -4.9289 0
    endloop
  endfacet
  facet normal -0.666838 -0.745202 0
    outer loop
      vertex -4.96923 -4.9289 4.86798
      vertex -4.96923 -4.9289 0
      vertex -4.66279 -5.20311 0
    endloop
  endfacet
  facet normal -0.666838 -0.745202 0
    outer loop
      vertex -4.66279 -5.20311 4.86798
      vertex -4.96923 -4.9289 4.86798
      vertex -4.66279 -5.20311 0
    endloop
  endfacet
  facet normal -0.735569 -0.67745 0
    outer loop
      vertex -4.66279 -5.20311 0
      vertex -4.38442 -5.50537 0
      vertex -4.66279 -5.20311 4.86798
    endloop
  endfacet
  facet normal -0.735569 -0.67745 0
    outer loop
      vertex -4.66279 -5.20311 4.86798
      vertex -4.38442 -5.50537 0
      vertex -4.38442 -5.50537 4.81204
    endloop
  endfacet
  facet normal -0.795442 -0.606029 0
    outer loop
      vertex -4.38442 -5.50537 0
      vertex -4.1334 -5.83484 0
      vertex -4.38442 -5.50537 4.81204
    endloop
  endfacet
  facet normal -0.795442 -0.606029 0
    outer loop
      vertex -4.38442 -5.50537 4.81204
      vertex -4.1334 -5.83484 0
      vertex -4.1334 -5.83484 4.70135
    endloop
  endfacet
  facet normal -0.843867 -0.536553 0
    outer loop
      vertex -4.1334 -5.83484 0
      vertex -3.9079 -6.1895 0
      vertex -4.1334 -5.83484 4.70135
    endloop
  endfacet
  facet normal -0.843867 -0.536553 0
    outer loop
      vertex -4.1334 -5.83484 4.70135
      vertex -3.9079 -6.1895 0
      vertex -3.9079 -6.1895 4.5383
    endloop
  endfacet
  facet normal -0.880316 -0.474388 0
    outer loop
      vertex -3.9079 -6.1895 0
      vertex -3.70496 -6.56609 0
      vertex -3.9079 -6.1895 4.5383
    endloop
  endfacet
  facet normal -0.880316 -0.474388 0
    outer loop
      vertex -3.9079 -6.1895 4.5383
      vertex -3.70496 -6.56609 0
      vertex -3.70496 -6.56609 4.32649
    endloop
  endfacet
  facet normal -0.905691 -0.423938 0
    outer loop
      vertex -3.70496 -6.56609 0
      vertex -3.52053 -6.96011 0
      vertex -3.70496 -6.56609 4.32649
    endloop
  endfacet
  facet normal -0.905691 -0.423938 0
    outer loop
      vertex -3.70496 -6.56609 4.32649
      vertex -3.52053 -6.96011 0
      vertex -3.52053 -6.96011 4.07068
    endloop
  endfacet
  facet normal -0.921414 -0.388582 0
    outer loop
      vertex -3.52053 -6.96011 0
      vertex -3.34941 -7.36587 0
      vertex -3.52053 -6.96011 4.07068
    endloop
  endfacet
  facet normal -0.921414 -0.388582 0
    outer loop
      vertex -3.52053 -6.96011 4.07068
      vertex -3.34941 -7.36587 0
      vertex -3.34941 -7.36587 3.77687
    endloop
  endfacet
  facet normal -0.928574 -0.371148 0
    outer loop
      vertex -3.34941 -7.36587 0
      vertex -3.18531 -7.77644 0
      vertex -3.34941 -7.36587 3.77687
    endloop
  endfacet
  facet normal -0.928574 -0.371148 0
    outer loop
      vertex -3.34941 -7.36587 3.77687
      vertex -3.18531 -7.77644 0
      vertex -3.18531 -7.77644 3.45221
    endloop
  endfacet
  facet normal -0.927203 -0.374559 0
    outer loop
      vertex -3.18531 -7.77644 0
      vertex -3.0208 -8.18367 0
      vertex -3.18531 -7.77644 3.45221
    endloop
  endfacet
  facet normal -0.927203 -0.374559 0
    outer loop
      vertex -3.18531 -7.77644 3.45221
      vertex -3.0208 -8.18367 0
      vertex -3.0208 -8.18367 3.10509
    endloop
  endfacet
  facet normal -0.915435 -0.402466 0
    outer loop
      vertex -3.0208 -8.18367 0
      vertex -2.84735 -8.5782 0
      vertex -3.0208 -8.18367 3.10509
    endloop
  endfacet
  facet normal -0.915435 -0.402466 0
    outer loop
      vertex -3.0208 -8.18367 3.10509
      vertex -2.84735 -8.5782 0
      vertex -2.84735 -8.5782 2.74506
    endloop
  endfacet
  facet normal -0.888188 -0.45948 0
    outer loop
      vertex -2.84735 -8.5782 0
      vertex -2.6553 -8.94943 0
      vertex -2.84735 -8.5782 2.74506
    endloop
  endfacet
  facet normal -0.888188 -0.45948 0
    outer loop
      vertex -2.84735 -8.5782 2.74506
      vertex -2.6553 -8.94943 0
      vertex -2.6553 -8.94943 2.38288
    endloop
  endfacet
  facet normal -0.835097 -0.550103 0
    outer loop
      vertex -2.6553 -8.94943 0
      vertex -2.43389 -9.28555 0
      vertex -2.6553 -8.94943 2.38288
    endloop
  endfacet
  facet normal -0.835097 -0.550103 0
    outer loop
      vertex -2.6553 -8.94943 2.38288
      vertex -2.43389 -9.28555 0
      vertex -2.43389 -9.28555 2.03051
    endloop
  endfacet
  facet normal -0.738829 -0.673893 0
    outer loop
      vertex -2.43389 -9.28555 0
      vertex -2.17121 -9.57353 0
      vertex -2.43389 -9.28555 2.03051
    endloop
  endfacet
  facet normal -0.738829 -0.673893 0
    outer loop
      vertex -2.43389 -9.28555 2.03051
      vertex -2.17121 -9.57353 0
      vertex -2.17121 -9.57353 1.70109
    endloop
  endfacet
  facet normal -0.579888 -0.814696 0
    outer loop
      vertex -2.17121 -9.57353 1.70109
      vertex -2.17121 -9.57353 0
      vertex -1.85428 -9.79913 0
    endloop
  endfacet
  facet normal -0.579888 -0.814696 0
    outer loop
      vertex -1.85428 -9.79913 1.40897
      vertex -2.17121 -9.57353 1.70109
      vertex -1.85428 -9.79913 0
    endloop
  endfacet
  facet normal -0.357964 -0.933735 0
    outer loop
      vertex -1.85428 -9.79913 1.40897
      vertex -1.85428 -9.79913 0
      vertex -1.46895 -9.94685 0
    endloop
  endfacet
  facet normal -0.357964 -0.933735 0
    outer loop
      vertex -1.46895 -9.94685 1.1697
      vertex -1.85428 -9.79913 1.40897
      vertex -1.46895 -9.94685 0
    endloop
  endfacet
  facet normal -0.112625 -0.993638 0
    outer loop
      vertex -1.46895 -9.94685 1.1697
      vertex -1.46895 -9.94685 0
      vertex -1 -10 0
    endloop
  endfacet
  facet normal -0.112625 -0.993638 0
    outer loop
      vertex -1 -10 1
      vertex -1.46895 -9.94685 1.1697
      vertex -1 -10 0
    endloop
  endfacet
  facet normal 0.338439 -0.0177395 0.940821
    outer loop
      vertex -1 -1 1.1697
      vertex -1.46895 -9.94685 1.1697
      vertex -1 -10 1
    endloop
  endfacet
  facet normal 0.998629 -0.0523437 0
    outer loop
      vertex -1 -1 1.40897
      vertex -1.46895 -9.94685 1.1697
      vertex -1 -1 1.1697
    endloop
  endfacet
  facet normal -0.120232 0.992746 0
    outer loop
      vertex -1 -1 1.40897
      vertex -1 -1 1.1697
      vertex -9.79812 -2.06555 1.40897
    endloop
  endfacet
  facet normal -0.0691537 0.570995 0.818036
    outer loop
      vertex -1 -1 1.40897
      vertex -9.79812 -2.06555 1.40897
      vertex -9.57026 -2.45645 1.70109
    endloop
  endfacet
  facet normal -0.112609 0.662628 0.740434
    outer loop
      vertex -1 -1 1.70109
      vertex -9.57026 -2.45645 1.70109
      vertex -9.27807 -2.77489 2.03051
    endloop
  endfacet
  facet normal -0.167541 0.985865 0
    outer loop
      vertex -1 -1 1.70109
      vertex -1 -1 1.40897
      vertex -9.57026 -2.45645 1.70109
    endloop
  endfacet
  facet normal -0.153652 0.71663 0.680318
    outer loop
      vertex -1 -1 2.03051
      vertex -9.27807 -2.77489 2.03051
      vertex -8.93535 -3.03593 2.38288
    endloop
  endfacet
  facet normal -0.209645 0.977778 0
    outer loop
      vertex -1 -1 2.03051
      vertex -1 -1 1.70109
      vertex -9.27807 -2.77489 2.03051
    endloop
  endfacet
  facet normal -0.190034 0.740686 0.644416
    outer loop
      vertex -1 -1 2.38288
      vertex -8.93535 -3.03593 2.38288
      vertex -8.55481 -3.2534 2.74506
    endloop
  endfacet
  facet normal -0.248516 0.968628 0
    outer loop
      vertex -1 -1 2.38288
      vertex -1 -1 2.03051
      vertex -8.93535 -3.03593 2.38288
    endloop
  endfacet
  facet normal -0.221087 0.741221 0.633808
    outer loop
      vertex -1 -1 2.74506
      vertex -8.55481 -3.2534 2.74506
      vertex -8.14802 -3.43992 3.10509
    endloop
  endfacet
  facet normal -0.28583 0.95828 0
    outer loop
      vertex -1 -1 2.74506
      vertex -1 -1 2.38288
      vertex -8.55481 -3.2534 2.74506
    endloop
  endfacet
  facet normal -0.246323 0.721628 0.646976
    outer loop
      vertex -1 -1 3.10509
      vertex -8.14802 -3.43992 3.10509
      vertex -7.72544 -3.60689 3.45221
    endloop
  endfacet
  facet normal -0.323042 0.946385 0
    outer loop
      vertex -1 -1 3.10509
      vertex -1 -1 2.74506
      vertex -8.14802 -3.43992 3.10509
    endloop
  endfacet
  facet normal -0.264627 0.682703 0.681094
    outer loop
      vertex -1 -1 3.45221
      vertex -7.72544 -3.60689 3.45221
      vertex -7.29641 -3.76448 3.77687
    endloop
  endfacet
  facet normal -0.361416 0.932405 0
    outer loop
      vertex -1 -1 3.45221
      vertex -1 -1 3.10509
      vertex -7.72544 -3.60689 3.45221
    endloop
  endfacet
  facet normal -0.273901 0.623839 0.731986
    outer loop
      vertex -1 -1 3.77687
      vertex -7.29641 -3.76448 3.77687
      vertex -6.86916 -3.92164 4.07068
    endloop
  endfacet
  facet normal -0.402015 0.915633 0
    outer loop
      vertex -1 -1 3.77687
      vertex -1 -1 3.45221
      vertex -7.29641 -3.76448 3.77687
    endloop
  endfacet
  facet normal -0.27113 0.54466 0.793621
    outer loop
      vertex -1 -1 4.07068
      vertex -6.86916 -3.92164 4.07068
      vertex -6.45079 -4.08611 4.32649
    endloop
  endfacet
  facet normal -0.445635 0.895215 0
    outer loop
      vertex -1 -1 4.07068
      vertex -1 -1 3.77687
      vertex -6.86916 -3.92164 4.07068
    endloop
  endfacet
  facet normal -0.253007 0.446869 0.858076
    outer loop
      vertex -1 -1 4.32649
      vertex -6.45079 -4.08611 4.32649
      vertex -6.0473 -4.26439 4.5383
    endloop
  endfacet
  facet normal -0.49269 0.870205 0
    outer loop
      vertex -1 -1 4.32649
      vertex -1 -1 4.07068
      vertex -6.45079 -4.08611 4.32649
    endloop
  endfacet
  facet normal -0.216958 0.335453 0.916734
    outer loop
      vertex -1 -1 4.5383
      vertex -6.0473 -4.26439 4.5383
      vertex -5.66356 -4.46178 4.70135
    endloop
  endfacet
  facet normal -0.543075 0.839685 0
    outer loop
      vertex -1 -1 4.5383
      vertex -1 -1 4.32649
      vertex -6.0473 -4.26439 4.5383
    endloop
  endfacet
  facet normal -0.162044 0.218298 0.962335
    outer loop
      vertex -1 -1 4.70135
      vertex -5.66356 -4.46178 4.70135
      vertex -5.30332 -4.68233 4.81204
    endloop
  endfacet
  facet normal -0.596038 0.802957 0
    outer loop
      vertex -1 -1 4.70135
      vertex -1 -1 4.5383
      vertex -5.66356 -4.46178 4.70135
    endloop
  endfacet
  facet normal -0.0890554 0.104074 0.990574
    outer loop
      vertex -1 -1 4.81204
      vertex -5.30332 -4.68233 4.81204
      vertex -4.96923 -4.9289 4.86798
    endloop
  endfacet
  facet normal -0.650157 0.7598 0
    outer loop
      vertex -1 -1 4.81204
      vertex -1 -1 4.70135
      vertex -5.30332 -4.68233 4.81204
    endloop
  endfacet
  facet normal 0 0 1
    outer loop
      vertex -1 -1 4.86798
      vertex -4.96923 -4.9289 4.86798
      vertex -4.66279 -5.20311 4.86798
    endloop
  endfacet
  facet normal -0.703488 0.710707 0
    outer loop
      vertex -1 -1 4.86798
      vertex -1 -1 4.81204
      vertex -4.96923 -4.9289 4.86798
    endloop
  endfacet
  facet normal 0.102303 -0.0891517 0.99075
    outer loop
      vertex -1 -1 4.86798
      vertex -4.66279 -5.20311 4.86798
      vertex -4.38442 -5.50537 4.81204
    endloop
  endfacet
  facet normal 0.79954 -0.600613 0
    outer loop
      vertex -1 -1 4.86798
      vertex -4.38442 -5.50537 4.81204
      vertex -1 -1 4.81204
    endloop
  endfacet
  facet normal 0.213939 -0.160711 0.963536
    outer loop
      vertex -1 -1 4.81204
      vertex -4.38442 -5.50537 4.81204
      vertex -4.1334 -5.83484 4.70135
    endloop
  endfacet
  facet normal 0.839176 -0.543859 0
    outer loop
      vertex -1 -1 4.81204
      vertex -4.1334 -5.83484 4.70135
      vertex -1 -1 4.70135
    endloop
  endfacet
  facet normal 0.329336 -0.213438 0.919773
    outer loop
      vertex -1 -1 4.70135
      vertex -4.1334 -5.83484 4.70135
      vertex -3.9079 -6.1895 4.5383
    endloop
  endfacet
  facet normal 0.872379 -0.48883 0
    outer loop
      vertex -1 -1 4.70135
      vertex -3.9079 -6.1895 4.5383
      vertex -1 -1 4.5383
    endloop
  endfacet
  facet normal 0.441371 -0.247319 0.862569
    outer loop
      vertex -1 -1 4.5383
      vertex -3.9079 -6.1895 4.5383
      vertex -3.70496 -6.56609 4.32649
    endloop
  endfacet
  facet normal 0.899417 -0.437091 0
    outer loop
      vertex -1 -1 4.5383
      vertex -3.70496 -6.56609 4.32649
      vertex -1 -1 4.32649
    endloop
  endfacet
  facet normal 0.542662 -0.263719 0.797477
    outer loop
      vertex -1 -1 4.32649
      vertex -3.70496 -6.56609 4.32649
      vertex -3.52053 -6.96011 4.07068
    endloop
  endfacet
  facet normal 0.921026 -0.389501 0
    outer loop
      vertex -1 -1 4.32649
      vertex -3.52053 -6.96011 4.07068
      vertex -1 -1 4.07068
    endloop
  endfacet
  facet normal 0.627531 -0.265382 0.731968
    outer loop
      vertex -1 -1 4.07068
      vertex -3.52053 -6.96011 4.07068
      vertex -3.34941 -7.36587 3.77687
    endloop
  endfacet
  facet normal 0.938148 -0.346236 0
    outer loop
      vertex -1 -1 4.07068
      vertex -3.34941 -7.36587 3.77687
      vertex -1 -1 3.77687
    endloop
  endfacet
  facet normal 0.693144 -0.255814 0.673877
    outer loop
      vertex -1 -1 3.77687
      vertex -3.34941 -7.36587 3.77687
      vertex -3.18531 -7.77644 3.45221
    endloop
  endfacet
  facet normal 0.951735 -0.306921 0
    outer loop
      vertex -1 -1 3.77687
      vertex -3.18531 -7.77644 3.45221
      vertex -1 -1 3.45221
    endloop
  endfacet
  facet normal 0.739157 -0.238368 0.629943
    outer loop
      vertex -1 -1 3.45221
      vertex -3.18531 -7.77644 3.45221
      vertex -3.0208 -8.18367 3.10509
    endloop
  endfacet
  facet normal 0.962637 -0.270794 0
    outer loop
      vertex -1 -1 3.45221
      vertex -3.0208 -8.18367 3.10509
      vertex -1 -1 3.10509
    endloop
  endfacet
  facet normal 0.766229 -0.215543 0.605338
    outer loop
      vertex -1 -1 3.10509
      vertex -3.0208 -8.18367 3.10509
      vertex -2.84735 -8.5782 2.74506
    endloop
  endfacet
  facet normal 0.97155 -0.236836 0
    outer loop
      vertex -1 -1 3.10509
      vertex -2.84735 -8.5782 2.74506
      vertex -1 -1 2.74506
    endloop
  endfacet
  facet normal 0.774286 -0.188749 0.604032
    outer loop
      vertex -1 -1 2.74506
      vertex -2.84735 -8.5782 2.74506
      vertex -2.6553 -8.94943 2.38288
    endloop
  endfacet
  facet normal 0.979001 -0.203856 0
    outer loop
      vertex -1 -1 2.74506
      vertex -2.6553 -8.94943 2.38288
      vertex -1 -1 2.38288
    endloop
  endfacet
  facet normal 0.760889 -0.158439 0.629241
    outer loop
      vertex -1 -1 2.38288
      vertex -2.6553 -8.94943 2.38288
      vertex -2.43389 -9.28555 2.03051
    endloop
  endfacet
  facet normal 0.985354 -0.170524 0
    outer loop
      vertex -1 -1 2.38288
      vertex -2.43389 -9.28555 2.03051
      vertex -1 -1 2.03051
    endloop
  endfacet
  facet normal 0.719828 -0.124572 0.682883
    outer loop
      vertex -1 -1 2.03051
      vertex -2.43389 -9.28555 2.03051
      vertex -2.17121 -9.57353 1.70109
    endloop
  endfacet
  facet normal 0.990798 -0.135351 0
    outer loop
      vertex -1 -1 2.03051
      vertex -2.17121 -9.57353 1.70109
      vertex -1 -1 1.70109
    endloop
  endfacet
  facet normal 0.640729 -0.0875287 0.762762
    outer loop
      vertex -1 -1 1.70109
      vertex -2.17121 -9.57353 1.70109
      vertex -1.85428 -9.79913 1.40897
    endloop
  endfacet
  facet normal 0.99532 -0.0966323 0
    outer loop
      vertex -1 -1 1.70109
      vertex -1.85428 -9.79913 1.40897
      vertex -1 -1 1.40897
    endloop
  endfacet
  facet normal 0.513032 -0.0498086 0.856923
    outer loop
      vertex -1 -1 1.40897
      vertex -1.85428 -9.79913 1.40897
      vertex -1.46895 -9.94685 1.1697
    endloop
  endfacet
endsolid OpenSCAD_Model
