solid OpenSCAD_Model
  facet normal -0.999081 -0.0428649 0
    outer loop
      vertex -10 -1 0
      vertex -9.987 -1.303 0
      vertex -10 -1 1
    endloop
  endfacet
  facet normal -0.999081 -0.0428649 0
    outer loop
      vertex -10 -1 1
      vertex -9.987 -1.303 0
      vertex -9.987 -1.303 1
    endloop
  endfacet
  facet normal 0 0 -1
    outer loop
      vertex -10 -1 0
      vertex -1 -1 0
      vertex -9.987 -1.303 0
    endloop
  endfacet
  facet normal 0 0 -1
    outer loop
      vertex -3.165 -7.829 0
      vertex -1 -1 0
      vertex -1 -10 0
    endloop
  endfacet
  facet normal 0 0 -1
    outer loop
      vertex -3.002 -8.228 0
      vertex -1 -10 0
      vertex -1.242 -9.987 0
    endloop
  endfacet
  facet normal 0 0 -1
    outer loop
      vertex -2.918 -8.424 0
      vertex -1.242 -9.987 0
      vertex -1.462 -9.948 0
    endloop
  endfacet
  facet normal 0 0 -1
    outer loop
      vertex -2.83 -8.615 0
      vertex -1.462 -9.948 0
      vertex -1.662 -9.887 0
    endloop
  endfacet
  facet normal 0 0 -1
    outer loop
      vertex -2.737 -8.8 0
      vertex -1.662 -9.887 0
      vertex -1.843 -9.805 0
    endloop
  endfacet
  facet normal 0 0 -1
    outer loop
      vertex -2.533 -9.147 0
      vertex -1.843 -9.805 0
      vertex -2.008 -9.704 0
    endloop
  endfacet
  facet normal 0 0 -1
    outer loop
      vertex -2.419 -9.305 0
      vertex -2.008 -9.704 0
      vertex -2.157 -9.586 0
    endloop
  endfacet
  facet normal 0 0 -1
    outer loop
      vertex -2.533 -9.147 0
      vertex -2.008 -9.704 0
      vertex -2.419 -9.305 0
    endloop
  endfacet
  facet normal 0 0 -1
    outer loop
      vertex -2.639 -8.978 0
      vertex -1.843 -9.805 0
      vertex -2.533 -9.147 0
    endloop
  endfacet
  facet normal 0 0 -1
    outer loop
      vertex -2.737 -8.8 0
      vertex -1.843 -9.805 0
      vertex -2.639 -8.978 0
    endloop
  endfacet
  facet normal 0 0 -1
    outer loop
      vertex -2.83 -8.615 0
      vertex -1.662 -9.887 0
      vertex -2.737 -8.8 0
    endloop
  endfacet
  facet normal 0 0 -1
    outer loop
      vertex -2.918 -8.424 0
      vertex -1.462 -9.948 0
      vertex -2.83 -8.615 0
    endloop
  endfacet
  facet normal 0 0 -1
    outer loop
      vertex -3.002 -8.228 0
      vertex -1.242 -9.987 0
      vertex -2.918 -8.424 0
    endloop
  endfacet
  facet normal 0 0 -1
    outer loop
      vertex -3.084 -8.029 0
      vertex -1 -10 0
      vertex -3.002 -8.228 0
    endloop
  endfacet
  facet normal 0 0 -1
    outer loop
      vertex -3.165 -7.829 0
      vertex -1 -10 0
      vertex -3.084 -8.029 0
    endloop
  endfacet
  facet normal 0 0 -1
    outer loop
      vertex -3.245 -7.626 0
      vertex -1 -1 0
      vertex -3.165 -7.829 0
    endloop
  endfacet
  facet normal 0 0 -1
    outer loop
      vertex -5.381 -4.631 0
      vertex -9.987 -1.303 0
      vertex -5.211 -4.746 0
    endloop
  endfacet
  facet normal 0 0 -1
    outer loop
      vertex -3.326 -7.424 0
      vertex -1 -1 0
      vertex -3.245 -7.626 0
    endloop
  endfacet
  facet normal 0 0 -1
    outer loop
      vertex -3.408 -7.223 0
      vertex -1 -1 0
      vertex -3.326 -7.424 0
    endloop
  endfacet
  facet normal 0 0 -1
    outer loop
      vertex -3.493 -7.024 0
      vertex -1 -1 0
      vertex -3.408 -7.223 0
    endloop
  endfacet
  facet normal 0 0 -1
    outer loop
      vertex -3.58 -6.827 0
      vertex -1 -1 0
      vertex -3.493 -7.024 0
    endloop
  endfacet
  facet normal 0 0 -1
    outer loop
      vertex -3.672 -6.634 0
      vertex -1 -1 0
      vertex -3.58 -6.827 0
    endloop
  endfacet
  facet normal 0 0 -1
    outer loop
      vertex -3.767 -6.444 0
      vertex -1 -1 0
      vertex -3.672 -6.634 0
    endloop
  endfacet
  facet normal 0 0 -1
    outer loop
      vertex -3.868 -6.26 0
      vertex -1 -1 0
      vertex -3.767 -6.444 0
    endloop
  endfacet
  facet normal 0 0 -1
    outer loop
      vertex -3.973 -6.08 0
      vertex -1 -1 0
      vertex -3.868 -6.26 0
    endloop
  endfacet
  facet normal 0 0 -1
    outer loop
      vertex -4.085 -5.906 0
      vertex -1 -1 0
      vertex -3.973 -6.08 0
    endloop
  endfacet
  facet normal 0 0 -1
    outer loop
      vertex -4.202 -5.738 0
      vertex -1 -1 0
      vertex -4.085 -5.906 0
    endloop
  endfacet
  facet normal 0 0 -1
    outer loop
      vertex -4.326 -5.576 0
      vertex -1 -1 0
      vertex -4.202 -5.738 0
    endloop
  endfacet
  facet normal 0 0 -1
    outer loop
      vertex -4.457 -5.421 0
      vertex -1 -1 0
      vertex -4.326 -5.576 0
    endloop
  endfacet
  facet normal 0 0 -1
    outer loop
      vertex -4.594 -5.273 0
      vertex -1 -1 0
      vertex -4.457 -5.421 0
    endloop
  endfacet
  facet normal 0 0 -1
    outer loop
      vertex -4.738 -5.131 0
      vertex -1 -1 0
      vertex -4.594 -5.273 0
    endloop
  endfacet
  facet normal 0 0 -1
    outer loop
      vertex -4.889 -4.996 0
      vertex -1 -1 0
      vertex -4.738 -5.131 0
    endloop
  endfacet
  facet normal 0 0 -1
    outer loop
      vertex -5.046 -4.868 0
      vertex -1 -1 0
      vertex -4.889 -4.996 0
    endloop
  endfacet
  facet normal 0 0 -1
    outer loop
      vertex -5.211 -4.746 0
      vertex -1 -1 0
      vertex -5.046 -4.868 0
    endloop
  endfacet
  facet normal 0 0 -1
    outer loop
      vertex -9.987 -1.303 0
      vertex -1 -1 0
      vertex -5.211 -4.746 0
    endloop
  endfacet
  facet normal 0 0 -1
    outer loop
      vertex -5.558 -4.522 0
      vertex -9.987 -1.303 0
      vertex -5.381 -4.631 0
    endloop
  endfacet
  facet normal 0 0 -1
    outer loop
      vertex -5.741 -4.419 0
      vertex -9.987 -1.303 0
      vertex -5.558 -4.522 0
    endloop
  endfacet
  facet normal 0 0 -1
    outer loop
      vertex -5.929 -4.322 0
      vertex -9.987 -1.303 0
      vertex -5.741 -4.419 0
    endloop
  endfacet
  facet normal 0 0 -1
    outer loop
      vertex -6.123 -4.229 0
      vertex -9.987 -1.303 0
      vertex -5.929 -4.322 0
    endloop
  endfacet
  facet normal 0 0 -1
    outer loop
      vertex -6.321 -4.141 0
      vertex -9.987 -1.303 0
      vertex -6.123 -4.229 0
    endloop
  endfacet
  facet normal 0 0 -1
    outer loop
      vertex -6.523 -4.057 0
      vertex -9.987 -1.303 0
      vertex -6.321 -4.141 0
    endloop
  endfacet
  facet normal 0 0 -1
    outer loop
      vertex -6.728 -3.975 0
      vertex -9.987 -1.303 0
      vertex -6.523 -4.057 0
    endloop
  endfacet
  facet normal 0 0 -1
    outer loop
      vertex -6.937 -3.896 0
      vertex -9.987 -1.303 0
      vertex -6.728 -3.975 0
    endloop
  endfacet
  facet normal 0 0 -1
    outer loop
      vertex -7.147 -3.819 0
      vertex -9.987 -1.303 0
      vertex -6.937 -3.896 0
    endloop
  endfacet
  facet normal 0 0 -1
    outer loop
      vertex -7.569 -3.665 0
      vertex -9.987 -1.303 0
      vertex -7.147 -3.819 0
    endloop
  endfacet
  facet normal 0 0 -1
    outer loop
      vertex -7.78 -3.586 0
      vertex -9.987 -1.303 0
      vertex -7.569 -3.665 0
    endloop
  endfacet
  facet normal 0 0 -1
    outer loop
      vertex -7.988 -3.505 0
      vertex -9.987 -1.303 0
      vertex -7.78 -3.586 0
    endloop
  endfacet
  facet normal 0 0 -1
    outer loop
      vertex -9.987 -1.303 0
      vertex -7.988 -3.505 0
      vertex -8.194 -3.42 0
    endloop
  endfacet
  facet normal 0 0 -1
    outer loop
      vertex -9.987 -1.303 0
      vertex -8.194 -3.42 0
      vertex -8.396 -3.33 0
    endloop
  endfacet
  facet normal 0 0 -1
    outer loop
      vertex -9.987 -1.303 0
      vertex -8.396 -3.33 0
      vertex -8.592 -3.234 0
    endloop
  endfacet
  facet normal 0 0 -1
    outer loop
      vertex -9.987 -1.303 0
      vertex -8.592 -3.234 0
      vertex -8.782 -3.13 0
    endloop
  endfacet
  facet normal 0 0 -1
    outer loop
      vertex -8.782 -3.13 0
      vertex -8.964 -3.017 0
      vertex -9.987 -1.303 0
    endloop
  endfacet
  facet normal 0 0 -1
    outer loop
      vertex -9.987 -1.303 0
      vertex -8.964 -3.017 0
      vertex -9.137 -2.893 0
    endloop
  endfacet
  facet normal 0 0 -1
    outer loop
      vertex -9.987 -1.303 0
      vertex -9.137 -2.893 0
      vertex -9.298 -2.757 0
    endloop
  endfacet
  facet normal 0 0 -1
    outer loop
      vertex -9.987 -1.303 0
      vertex -9.298 -2.757 0
      vertex -9.447 -2.606 0
    endloop
  endfacet
  facet normal 0 0 -1
    outer loop
      vertex -9.987 -1.303 0
      vertex -9.447 -2.606 0
      vertex -9.583 -2.44 0
    endloop
  endfacet
  facet normal 0 0 -1
    outer loop
      vertex -9.987 -1.303 0
      vertex -9.583 -2.44 0
      vertex -9.702 -2.255 0
    endloop
  endfacet
  facet normal 0 0 -1
    outer loop
      vertex -9.987 -1.303 0
      vertex -9.702 -2.255 0
      vertex -9.804 -2.052 0
    endloop
  endfacet
  facet normal 0 0 -1
    outer loop
      vertex -9.987 -1.303 0
      vertex -9.804 -2.052 0
      vertex -9.887 -1.826 0
    endloop
  endfacet
  facet normal 0 0 -1
    outer loop
      vertex -9.987 -1.303 0
      vertex -9.887 -1.826 0
      vertex -9.948 -1.577 0
    endloop
  endfacet
  facet normal 0 0 -1
    outer loop
      vertex -2.419 -9.305 0
      vertex -2.157 -9.586 0
      vertex -2.294 -9.452 0
    endloop
  endfacet
  facet normal 0 1 0
    outer loop
      vertex -10 -1 0
      vertex -10 -1 1
      vertex -1 -1 0
    endloop
  endfacet
  facet normal 0 1 0
    outer loop
      vertex -1 -1 0
      vertex -10 -1 1
      vertex -1 -1 1
    endloop
  endfacet
  facet normal 0 0 1
    outer loop
      vertex -1 -1 1
      vertex -10 -1 1
      vertex -9.987 -1.303 1
    endloop
  endfacet
  facet normal -0.0336962 0.999432 0
    outer loop
      vertex -1 -1 1.07371
      vertex -1 -1 1
      vertex -9.987 -1.303 1.07371
    endloop
  endfacet
  facet normal -0.0336962 0.999432 0
    outer loop
      vertex -9.987 -1.303 1.07371
      vertex -1 -1 1
      vertex -9.987 -1.303 1
    endloop
  endfacet
  facet normal -0.990022 -0.140915 0
    outer loop
      vertex -9.987 -1.303 0
      vertex -9.948 -1.577 0
      vertex -9.987 -1.303 1
    endloop
  endfacet
  facet normal -0.990022 -0.140915 0
    outer loop
      vertex -9.987 -1.303 1
      vertex -9.948 -1.577 0
      vertex -9.948 -1.577 1.07371
    endloop
  endfacet
  facet normal -0.990022 -0.140915 0
    outer loop
      vertex -9.987 -1.303 1
      vertex -9.948 -1.577 1.07371
      vertex -9.987 -1.303 1.07371
    endloop
  endfacet
  facet normal -0.971279 -0.237944 0
    outer loop
      vertex -9.948 -1.577 0
      vertex -9.887 -1.826 0
      vertex -9.948 -1.577 1.07371
    endloop
  endfacet
  facet normal -0.971279 -0.237944 0
    outer loop
      vertex -9.948 -1.577 1.07371
      vertex -9.887 -1.826 0
      vertex -9.887 -1.826 1.16641
    endloop
  endfacet
  facet normal -0.971279 -0.237944 0
    outer loop
      vertex -9.948 -1.577 1.07371
      vertex -9.887 -1.826 1.16641
      vertex -9.948 -1.577 1.16641
    endloop
  endfacet
  facet normal -0.938697 -0.344743 0
    outer loop
      vertex -9.887 -1.826 0
      vertex -9.804 -2.052 0
      vertex -9.887 -1.826 1.16641
    endloop
  endfacet
  facet normal -0.938697 -0.344743 0
    outer loop
      vertex -9.887 -1.826 1.16641
      vertex -9.804 -2.052 0
      vertex -9.804 -2.052 1.27602
    endloop
  endfacet
  facet normal -0.938697 -0.344743 0
    outer loop
      vertex -9.887 -1.826 1.16641
      vertex -9.804 -2.052 1.27602
      vertex -9.887 -1.826 1.27602
    endloop
  endfacet
  facet normal -0.893545 -0.448973 0
    outer loop
      vertex -9.804 -2.052 0
      vertex -9.702 -2.255 0
      vertex -9.804 -2.052 1.27602
    endloop
  endfacet
  facet normal -0.893545 -0.448973 0
    outer loop
      vertex -9.804 -2.052 1.27602
      vertex -9.702 -2.255 0
      vertex -9.702 -2.255 1.40048
    endloop
  endfacet
  facet normal -0.893545 -0.448973 0
    outer loop
      vertex -9.804 -2.052 1.27602
      vertex -9.702 -2.255 1.40048
      vertex -9.804 -2.052 1.40048
    endloop
  endfacet
  facet normal -0.841031 -0.540987 0
    outer loop
      vertex -9.702 -2.255 0
      vertex -9.583 -2.44 0
      vertex -9.702 -2.255 1.40048
    endloop
  endfacet
  facet normal -0.841031 -0.540987 0
    outer loop
      vertex -9.702 -2.255 1.40048
      vertex -9.583 -2.44 0
      vertex -9.583 -2.44 1.53784
    endloop
  endfacet
  facet normal -0.841031 -0.540987 0
    outer loop
      vertex -9.702 -2.255 1.40048
      vertex -9.583 -2.44 1.53784
      vertex -9.702 -2.255 1.53784
    endloop
  endfacet
  facet normal -0.773542 -0.633745 0
    outer loop
      vertex -9.583 -2.44 0
      vertex -9.447 -2.606 0
      vertex -9.583 -2.44 1.53784
    endloop
  endfacet
  facet normal -0.773542 -0.633745 0
    outer loop
      vertex -9.583 -2.44 1.53784
      vertex -9.447 -2.606 0
      vertex -9.447 -2.606 1.68622
    endloop
  endfacet
  facet normal -0.773542 -0.633745 0
    outer loop
      vertex -9.583 -2.44 1.53784
      vertex -9.447 -2.606 1.68622
      vertex -9.583 -2.44 1.68622
    endloop
  endfacet
  facet normal -0.711805 -0.702377 0
    outer loop
      vertex -9.447 -2.606 0
      vertex -9.298 -2.757 0
      vertex -9.447 -2.606 1.68622
    endloop
  endfacet
  facet normal -0.711805 -0.702377 0
    outer loop
      vertex -9.447 -2.606 1.68622
      vertex -9.298 -2.757 0
      vertex -9.298 -2.757 1.84377
    endloop
  endfacet
  facet normal -0.711805 -0.702377 0
    outer loop
      vertex -9.447 -2.606 1.68622
      vertex -9.298 -2.757 1.84377
      vertex -9.447 -2.606 1.84377
    endloop
  endfacet
  facet normal -0.645304 -0.763926 0
    outer loop
      vertex -9.298 -2.757 1.84377
      vertex -9.298 -2.757 0
      vertex -9.137 -2.893 0
    endloop
  endfacet
  facet normal -0.645304 -0.763926 0
    outer loop
      vertex -9.298 -2.757 2.00876
      vertex -9.298 -2.757 1.84377
      vertex -9.137 -2.893 2.00876
    endloop
  endfacet
  facet normal -0.645304 -0.763926 0
    outer loop
      vertex -9.137 -2.893 2.00876
      vertex -9.298 -2.757 1.84377
      vertex -9.137 -2.893 0
    endloop
  endfacet
  facet normal -0.582571 -0.81278 0
    outer loop
      vertex -9.137 -2.893 2.00876
      vertex -9.137 -2.893 0
      vertex -8.964 -3.017 0
    endloop
  endfacet
  facet normal -0.582571 -0.81278 0
    outer loop
      vertex -9.137 -2.893 2.17951
      vertex -9.137 -2.893 2.00876
      vertex -8.964 -3.017 2.17951
    endloop
  endfacet
  facet normal -0.582571 -0.81278 0
    outer loop
      vertex -8.964 -3.017 2.17951
      vertex -9.137 -2.893 2.00876
      vertex -8.964 -3.017 0
    endloop
  endfacet
  facet normal -0.527479 -0.849568 0
    outer loop
      vertex -8.964 -3.017 2.17951
      vertex -8.964 -3.017 0
      vertex -8.782 -3.13 0
    endloop
  endfacet
  facet normal -0.527479 -0.849568 0
    outer loop
      vertex -8.964 -3.017 2.35439
      vertex -8.964 -3.017 2.17951
      vertex -8.782 -3.13 2.35439
    endloop
  endfacet
  facet normal -0.527479 -0.849568 0
    outer loop
      vertex -8.782 -3.13 2.35439
      vertex -8.964 -3.017 2.17951
      vertex -8.782 -3.13 0
    endloop
  endfacet
  facet normal -0.480145 -0.877189 0
    outer loop
      vertex -8.782 -3.13 2.35439
      vertex -8.782 -3.13 0
      vertex -8.592 -3.234 0
    endloop
  endfacet
  facet normal -0.480145 -0.877189 0
    outer loop
      vertex -8.782 -3.13 2.53187
      vertex -8.782 -3.13 2.35439
      vertex -8.592 -3.234 2.53187
    endloop
  endfacet
  facet normal -0.480145 -0.877189 0
    outer loop
      vertex -8.592 -3.234 2.53187
      vertex -8.782 -3.13 2.35439
      vertex -8.592 -3.234 0
    endloop
  endfacet
  facet normal -0.439867 -0.898063 0
    outer loop
      vertex -8.592 -3.234 2.53187
      vertex -8.592 -3.234 0
      vertex -8.396 -3.33 0
    endloop
  endfacet
  facet normal -0.439867 -0.898063 0
    outer loop
      vertex -8.592 -3.234 2.71048
      vertex -8.592 -3.234 2.53187
      vertex -8.396 -3.33 2.71048
    endloop
  endfacet
  facet normal -0.439867 -0.898063 0
    outer loop
      vertex -8.396 -3.33 2.71048
      vertex -8.592 -3.234 2.53187
      vertex -8.396 -3.33 0
    endloop
  endfacet
  facet normal -0.406977 -0.913438 0
    outer loop
      vertex -8.396 -3.33 2.71048
      vertex -8.396 -3.33 0
      vertex -8.194 -3.42 0
    endloop
  endfacet
  facet normal -0.406977 -0.913438 0
    outer loop
      vertex -8.396 -3.33 2.88881
      vertex -8.396 -3.33 2.71048
      vertex -8.194 -3.42 2.88881
    endloop
  endfacet
  facet normal -0.406977 -0.913438 0
    outer loop
      vertex -8.194 -3.42 2.88881
      vertex -8.396 -3.33 2.71048
      vertex -8.194 -3.42 0
    endloop
  endfacet
  facet normal -0.381427 -0.924399 0
    outer loop
      vertex -8.194 -3.42 2.88881
      vertex -8.194 -3.42 0
      vertex -7.988 -3.505 0
    endloop
  endfacet
  facet normal -0.381427 -0.924399 0
    outer loop
      vertex -8.194 -3.42 3.06554
      vertex -8.194 -3.42 2.88881
      vertex -7.988 -3.505 3.06554
    endloop
  endfacet
  facet normal -0.381427 -0.924399 0
    outer loop
      vertex -7.988 -3.505 3.06554
      vertex -8.194 -3.42 2.88881
      vertex -7.988 -3.505 0
    endloop
  endfacet
  facet normal -0.362879 -0.931836 0
    outer loop
      vertex -7.988 -3.505 3.06554
      vertex -7.988 -3.505 0
      vertex -7.78 -3.586 0
    endloop
  endfacet
  facet normal -0.362879 -0.931836 0
    outer loop
      vertex -7.988 -3.505 3.2394
      vertex -7.988 -3.505 3.06554
      vertex -7.78 -3.586 3.2394
    endloop
  endfacet
  facet normal -0.362879 -0.931836 0
    outer loop
      vertex -7.78 -3.586 3.2394
      vertex -7.988 -3.505 3.06554
      vertex -7.78 -3.586 0
    endloop
  endfacet
  facet normal -0.350637 -0.936511 0
    outer loop
      vertex -7.78 -3.586 3.2394
      vertex -7.78 -3.586 0
      vertex -7.569 -3.665 0
    endloop
  endfacet
  facet normal -0.350637 -0.936511 0
    outer loop
      vertex -7.78 -3.586 3.40919
      vertex -7.78 -3.586 3.2394
      vertex -7.569 -3.665 3.40919
    endloop
  endfacet
  facet normal -0.350637 -0.936511 0
    outer loop
      vertex -7.569 -3.665 3.40919
      vertex -7.78 -3.586 3.2394
      vertex -7.569 -3.665 0
    endloop
  endfacet
  facet normal -0.342815 -0.939403 0
    outer loop
      vertex -7.569 -3.665 3.40919
      vertex -7.569 -3.665 0
      vertex -7.147 -3.819 0
    endloop
  endfacet
  facet normal -0.342815 -0.939403 0
    outer loop
      vertex -7.358 -3.742 3.57381
      vertex -7.569 -3.665 3.40919
      vertex -7.147 -3.819 3.73219
    endloop
  endfacet
  facet normal -0.342815 -0.939403 0
    outer loop
      vertex -7.147 -3.819 3.73219
      vertex -7.569 -3.665 3.40919
      vertex -7.147 -3.819 0
    endloop
  endfacet
  facet normal -0.342815 -0.939403 0
    outer loop
      vertex -7.358 -3.742 3.73219
      vertex -7.358 -3.742 3.57381
      vertex -7.147 -3.819 3.73219
    endloop
  endfacet
  facet normal -0.342815 -0.939403 0
    outer loop
      vertex -7.358 -3.742 3.57381
      vertex -7.569 -3.665 3.57381
      vertex -7.569 -3.665 3.40919
    endloop
  endfacet
  facet normal -0.344255 -0.938876 0
    outer loop
      vertex -7.147 -3.819 3.73219
      vertex -7.147 -3.819 0
      vertex -6.937 -3.896 0
    endloop
  endfacet
  facet normal -0.344255 -0.938876 0
    outer loop
      vertex -7.147 -3.819 3.88337
      vertex -7.147 -3.819 3.73219
      vertex -6.937 -3.896 3.88337
    endloop
  endfacet
  facet normal -0.344255 -0.938876 0
    outer loop
      vertex -6.937 -3.896 3.88337
      vertex -7.147 -3.819 3.73219
      vertex -6.937 -3.896 0
    endloop
  endfacet
  facet normal -0.353575 -0.935406 0
    outer loop
      vertex -6.937 -3.896 3.88337
      vertex -6.937 -3.896 0
      vertex -6.728 -3.975 0
    endloop
  endfacet
  facet normal -0.353575 -0.935406 0
    outer loop
      vertex -6.937 -3.896 4.02641
      vertex -6.937 -3.896 3.88337
      vertex -6.728 -3.975 4.02641
    endloop
  endfacet
  facet normal -0.353575 -0.935406 0
    outer loop
      vertex -6.728 -3.975 4.02641
      vertex -6.937 -3.896 3.88337
      vertex -6.728 -3.975 0
    endloop
  endfacet
  facet normal -0.371391 -0.928477 0
    outer loop
      vertex -6.728 -3.975 4.02641
      vertex -6.728 -3.975 0
      vertex -6.523 -4.057 0
    endloop
  endfacet
  facet normal -0.371391 -0.928477 0
    outer loop
      vertex -6.728 -3.975 4.16049
      vertex -6.728 -3.975 4.02641
      vertex -6.523 -4.057 4.16049
    endloop
  endfacet
  facet normal -0.371391 -0.928477 0
    outer loop
      vertex -6.523 -4.057 4.16049
      vertex -6.728 -3.975 4.02641
      vertex -6.523 -4.057 0
    endloop
  endfacet
  facet normal -0.383966 -0.923347 0
    outer loop
      vertex -6.523 -4.057 4.16049
      vertex -6.523 -4.057 0
      vertex -6.321 -4.141 0
    endloop
  endfacet
  facet normal -0.383966 -0.923347 0
    outer loop
      vertex -6.523 -4.057 4.28484
      vertex -6.523 -4.057 4.16049
      vertex -6.321 -4.141 4.28484
    endloop
  endfacet
  facet normal -0.383966 -0.923347 0
    outer loop
      vertex -6.321 -4.141 4.28484
      vertex -6.523 -4.057 4.16049
      vertex -6.321 -4.141 0
    endloop
  endfacet
  facet normal -0.406138 -0.913812 0
    outer loop
      vertex -6.321 -4.141 4.28484
      vertex -6.321 -4.141 0
      vertex -6.123 -4.229 0
    endloop
  endfacet
  facet normal -0.406138 -0.913812 0
    outer loop
      vertex -6.321 -4.141 4.39875
      vertex -6.321 -4.141 4.28484
      vertex -6.123 -4.229 4.39875
    endloop
  endfacet
  facet normal -0.406138 -0.913812 0
    outer loop
      vertex -6.123 -4.229 4.39875
      vertex -6.321 -4.141 4.28484
      vertex -6.123 -4.229 0
    endloop
  endfacet
  facet normal -0.432278 -0.901741 0
    outer loop
      vertex -6.123 -4.229 4.39875
      vertex -6.123 -4.229 0
      vertex -5.929 -4.322 0
    endloop
  endfacet
  facet normal -0.432278 -0.901741 0
    outer loop
      vertex -6.123 -4.229 4.50159
      vertex -6.123 -4.229 4.39875
      vertex -5.929 -4.322 4.50159
    endloop
  endfacet
  facet normal -0.432278 -0.901741 0
    outer loop
      vertex -5.929 -4.322 4.50159
      vertex -6.123 -4.229 4.39875
      vertex -5.929 -4.322 0
    endloop
  endfacet
  facet normal -0.458523 -0.888683 0
    outer loop
      vertex -5.929 -4.322 4.50159
      vertex -5.929 -4.322 0
      vertex -5.741 -4.419 0
    endloop
  endfacet
  facet normal -0.458523 -0.888683 0
    outer loop
      vertex -5.929 -4.322 4.5928
      vertex -5.929 -4.322 4.50159
      vertex -5.741 -4.419 4.5928
    endloop
  endfacet
  facet normal -0.458523 -0.888683 0
    outer loop
      vertex -5.741 -4.419 4.5928
      vertex -5.929 -4.322 4.50159
      vertex -5.741 -4.419 0
    endloop
  endfacet
  facet normal -0.490487 -0.871448 0
    outer loop
      vertex -5.741 -4.419 4.5928
      vertex -5.741 -4.419 0
      vertex -5.558 -4.522 0
    endloop
  endfacet
  facet normal -0.490487 -0.871448 0
    outer loop
      vertex -5.741 -4.419 4.67189
      vertex -5.741 -4.419 4.5928
      vertex -5.558 -4.522 4.67189
    endloop
  endfacet
  facet normal -0.490487 -0.871448 0
    outer loop
      vertex -5.558 -4.522 4.67189
      vertex -5.741 -4.419 4.5928
      vertex -5.558 -4.522 0
    endloop
  endfacet
  facet normal -0.524366 -0.851493 0
    outer loop
      vertex -5.558 -4.522 4.67189
      vertex -5.558 -4.522 0
      vertex -5.381 -4.631 0
    endloop
  endfacet
  facet normal -0.524366 -0.851493 0
    outer loop
      vertex -5.558 -4.522 4.73844
      vertex -5.558 -4.522 4.67189
      vertex -5.381 -4.631 4.73844
    endloop
  endfacet
  facet normal -0.524366 -0.851493 0
    outer loop
      vertex -5.381 -4.631 4.73844
      vertex -5.558 -4.522 4.67189
      vertex -5.381 -4.631 0
    endloop
  endfacet
  facet normal -0.560309 -0.828283 0
    outer loop
      vertex -5.381 -4.631 4.73844
      vertex -5.381 -4.631 0
      vertex -5.211 -4.746 0
    endloop
  endfacet
  facet normal -0.560309 -0.828283 0
    outer loop
      vertex -5.381 -4.631 4.7921
      vertex -5.381 -4.631 4.73844
      vertex -5.211 -4.746 4.7921
    endloop
  endfacet
  facet normal -0.560309 -0.828283 0
    outer loop
      vertex -5.211 -4.746 4.7921
      vertex -5.381 -4.631 4.73844
      vertex -5.211 -4.746 0
    endloop
  endfacet
  facet normal -0.594528 -0.804075 0
    outer loop
      vertex -5.211 -4.746 4.7921
      vertex -5.211 -4.746 0
      vertex -5.046 -4.868 0
    endloop
  endfacet
  facet normal -0.594528 -0.804075 0
    outer loop
      vertex -5.211 -4.746 4.8326
      vertex -5.211 -4.746 4.7921
      vertex -5.046 -4.868 4.8326
    endloop
  endfacet
  facet normal -0.594528 -0.804075 0
    outer loop
      vertex -5.046 -4.868 4.8326
      vertex -5.211 -4.746 4.7921
      vertex -5.046 -4.868 0
    endloop
  endfacet
  facet normal -0.631893 -0.775056 0
    outer loop
      vertex -5.046 -4.868 4.8326
      vertex -5.046 -4.868 0
      vertex -4.889 -4.996 0
    endloop
  endfacet
  facet normal -0.631893 -0.775056 0
    outer loop
      vertex -5.046 -4.868 4.85971
      vertex -5.046 -4.868 4.8326
      vertex -4.889 -4.996 4.85971
    endloop
  endfacet
  facet normal -0.631893 -0.775056 0
    outer loop
      vertex -4.889 -4.996 4.85971
      vertex -5.046 -4.868 4.8326
      vertex -4.889 -4.996 0
    endloop
  endfacet
  facet normal -0.666506 -0.7455 0
    outer loop
      vertex -4.889 -4.996 4.85971
      vertex -4.889 -4.996 0
      vertex -4.738 -5.131 0
    endloop
  endfacet
  facet normal -0.666506 -0.7455 0
    outer loop
      vertex -4.889 -4.996 4.8733
      vertex -4.889 -4.996 4.85971
      vertex -4.738 -5.131 4.8733
    endloop
  endfacet
  facet normal -0.666506 -0.7455 0
    outer loop
      vertex -4.738 -5.131 4.8733
      vertex -4.889 -4.996 4.85971
      vertex -4.738 -5.131 0
    endloop
  endfacet
  facet normal -0.702145 -0.712034 0
    outer loop
      vertex -4.738 -5.131 4.8733
      vertex -4.738 -5.131 0
      vertex -4.594 -5.273 0
    endloop
  endfacet
  facet normal -0.702145 -0.712034 0
    outer loop
      vertex -4.594 -5.273 4.8733
      vertex -4.738 -5.131 4.8733
      vertex -4.594 -5.273 4.85971
    endloop
  endfacet
  facet normal -0.702145 -0.712034 0
    outer loop
      vertex -4.594 -5.273 4.85971
      vertex -4.738 -5.131 4.8733
      vertex -4.594 -5.273 0
    endloop
  endfacet
  facet normal -0.733852 -0.679309 0
    outer loop
      vertex -4.594 -5.273 0
      vertex -4.457 -5.421 0
      vertex -4.594 -5.273 4.85971
    endloop
  endfacet
  facet normal -0.733852 -0.679309 0
    outer loop
      vertex -4.594 -5.273 4.85971
      vertex -4.457 -5.421 0
      vertex -4.457 -5.421 4.8326
    endloop
  endfacet
  facet normal -0.733852 -0.679309 0
    outer loop
      vertex -4.594 -5.273 4.85971
      vertex -4.457 -5.421 4.8326
      vertex -4.457 -5.421 4.85971
    endloop
  endfacet
  facet normal -0.76376 -0.6455 0
    outer loop
      vertex -4.457 -5.421 0
      vertex -4.326 -5.576 0
      vertex -4.457 -5.421 4.8326
    endloop
  endfacet
  facet normal -0.76376 -0.6455 0
    outer loop
      vertex -4.457 -5.421 4.8326
      vertex -4.326 -5.576 0
      vertex -4.326 -5.576 4.7921
    endloop
  endfacet
  facet normal -0.76376 -0.6455 0
    outer loop
      vertex -4.457 -5.421 4.8326
      vertex -4.326 -5.576 4.7921
      vertex -4.326 -5.576 4.8326
    endloop
  endfacet
  facet normal -0.794079 -0.607814 0
    outer loop
      vertex -4.326 -5.576 0
      vertex -4.202 -5.738 0
      vertex -4.326 -5.576 4.7921
    endloop
  endfacet
  facet normal -0.794079 -0.607814 0
    outer loop
      vertex -4.326 -5.576 4.7921
      vertex -4.202 -5.738 0
      vertex -4.202 -5.738 4.73844
    endloop
  endfacet
  facet normal -0.794079 -0.607814 0
    outer loop
      vertex -4.326 -5.576 4.7921
      vertex -4.202 -5.738 4.73844
      vertex -4.202 -5.738 4.7921
    endloop
  endfacet
  facet normal -0.820606 -0.571494 0
    outer loop
      vertex -4.202 -5.738 0
      vertex -4.085 -5.906 0
      vertex -4.202 -5.738 4.73844
    endloop
  endfacet
  facet normal -0.820606 -0.571494 0
    outer loop
      vertex -4.202 -5.738 4.73844
      vertex -4.085 -5.906 0
      vertex -4.085 -5.906 4.67189
    endloop
  endfacet
  facet normal -0.820606 -0.571494 0
    outer loop
      vertex -4.202 -5.738 4.73844
      vertex -4.085 -5.906 4.67189
      vertex -4.085 -5.906 4.73844
    endloop
  endfacet
  facet normal -0.840864 -0.541246 0
    outer loop
      vertex -4.085 -5.906 0
      vertex -3.973 -6.08 0
      vertex -4.085 -5.906 4.67189
    endloop
  endfacet
  facet normal -0.840864 -0.541246 0
    outer loop
      vertex -4.085 -5.906 4.67189
      vertex -3.973 -6.08 0
      vertex -3.973 -6.08 4.5928
    endloop
  endfacet
  facet normal -0.840864 -0.541246 0
    outer loop
      vertex -4.085 -5.906 4.67189
      vertex -3.973 -6.08 4.5928
      vertex -3.973 -6.08 4.67189
    endloop
  endfacet
  facet normal -0.863779 -0.503871 0
    outer loop
      vertex -3.973 -6.08 0
      vertex -3.868 -6.26 0
      vertex -3.973 -6.08 4.5928
    endloop
  endfacet
  facet normal -0.863779 -0.503871 0
    outer loop
      vertex -3.973 -6.08 4.5928
      vertex -3.868 -6.26 0
      vertex -3.868 -6.26 4.50159
    endloop
  endfacet
  facet normal -0.863779 -0.503871 0
    outer loop
      vertex -3.973 -6.08 4.5928
      vertex -3.868 -6.26 4.50159
      vertex -3.868 -6.26 4.5928
    endloop
  endfacet
  facet normal -0.876618 -0.481187 0
    outer loop
      vertex -3.868 -6.26 0
      vertex -3.767 -6.444 0
      vertex -3.868 -6.26 4.50159
    endloop
  endfacet
  facet normal -0.876618 -0.481187 0
    outer loop
      vertex -3.868 -6.26 4.50159
      vertex -3.767 -6.444 0
      vertex -3.767 -6.444 4.39875
    endloop
  endfacet
  facet normal -0.876618 -0.481187 0
    outer loop
      vertex -3.868 -6.26 4.50159
      vertex -3.767 -6.444 4.39875
      vertex -3.767 -6.444 4.50159
    endloop
  endfacet
  facet normal -0.894427 -0.447214 0
    outer loop
      vertex -3.767 -6.444 0
      vertex -3.672 -6.634 0
      vertex -3.767 -6.444 4.39875
    endloop
  endfacet
  facet normal -0.894427 -0.447214 0
    outer loop
      vertex -3.767 -6.444 4.39875
      vertex -3.672 -6.634 0
      vertex -3.672 -6.634 4.28484
    endloop
  endfacet
  facet normal -0.894427 -0.447214 0
    outer loop
      vertex -3.767 -6.444 4.39875
      vertex -3.672 -6.634 4.28484
      vertex -3.672 -6.634 4.39875
    endloop
  endfacet
  facet normal -0.902688 -0.430297 0
    outer loop
      vertex -3.672 -6.634 0
      vertex -3.58 -6.827 0
      vertex -3.672 -6.634 4.28484
    endloop
  endfacet
  facet normal -0.902688 -0.430297 0
    outer loop
      vertex -3.672 -6.634 4.28484
      vertex -3.58 -6.827 0
      vertex -3.58 -6.827 4.16049
    endloop
  endfacet
  facet normal -0.902688 -0.430297 0
    outer loop
      vertex -3.672 -6.634 4.28484
      vertex -3.58 -6.827 4.16049
      vertex -3.58 -6.827 4.28484
    endloop
  endfacet
  facet normal -0.914766 -0.403983 0
    outer loop
      vertex -3.58 -6.827 0
      vertex -3.493 -7.024 0
      vertex -3.58 -6.827 4.16049
    endloop
  endfacet
  facet normal -0.914766 -0.403983 0
    outer loop
      vertex -3.58 -6.827 4.16049
      vertex -3.493 -7.024 0
      vertex -3.493 -7.024 4.02641
    endloop
  endfacet
  facet normal -0.914766 -0.403983 0
    outer loop
      vertex -3.58 -6.827 4.16049
      vertex -3.493 -7.024 4.02641
      vertex -3.493 -7.024 4.16049
    endloop
  endfacet
  facet normal -0.919622 -0.392804 0
    outer loop
      vertex -3.493 -7.024 0
      vertex -3.408 -7.223 0
      vertex -3.493 -7.024 4.02641
    endloop
  endfacet
  facet normal -0.919622 -0.392804 0
    outer loop
      vertex -3.493 -7.024 4.02641
      vertex -3.408 -7.223 0
      vertex -3.408 -7.223 3.88337
    endloop
  endfacet
  facet normal -0.919622 -0.392804 0
    outer loop
      vertex -3.493 -7.024 4.02641
      vertex -3.408 -7.223 3.88337
      vertex -3.408 -7.223 4.02641
    endloop
  endfacet
  facet normal -0.925913 -0.377736 0
    outer loop
      vertex -3.408 -7.223 0
      vertex -3.326 -7.424 0
      vertex -3.408 -7.223 3.88337
    endloop
  endfacet
  facet normal -0.925913 -0.377736 0
    outer loop
      vertex -3.408 -7.223 3.88337
      vertex -3.326 -7.424 0
      vertex -3.326 -7.424 3.73219
    endloop
  endfacet
  facet normal -0.925913 -0.377736 0
    outer loop
      vertex -3.408 -7.223 3.88337
      vertex -3.326 -7.424 3.73219
      vertex -3.326 -7.424 3.88337
    endloop
  endfacet
  facet normal -0.928159 -0.372183 0
    outer loop
      vertex -3.326 -7.424 0
      vertex -3.245 -7.626 0
      vertex -3.326 -7.424 3.73219
    endloop
  endfacet
  facet normal -0.928159 -0.372183 0
    outer loop
      vertex -3.326 -7.424 3.73219
      vertex -3.245 -7.626 0
      vertex -3.245 -7.626 3.57381
    endloop
  endfacet
  facet normal -0.928159 -0.372183 0
    outer loop
      vertex -3.326 -7.424 3.73219
      vertex -3.245 -7.626 3.57381
      vertex -3.245 -7.626 3.73219
    endloop
  endfacet
  facet normal -0.930361 -0.366645 0
    outer loop
      vertex -3.245 -7.626 0
      vertex -3.165 -7.829 0
      vertex -3.245 -7.626 3.57381
    endloop
  endfacet
  facet normal -0.930361 -0.366645 0
    outer loop
      vertex -3.245 -7.626 3.57381
      vertex -3.165 -7.829 0
      vertex -3.165 -7.829 3.40919
    endloop
  endfacet
  facet normal -0.930361 -0.366645 0
    outer loop
      vertex -3.245 -7.626 3.57381
      vertex -3.165 -7.829 3.40919
      vertex -3.165 -7.829 3.57381
    endloop
  endfacet
  facet normal -0.92687 -0.375382 0
    outer loop
      vertex -3.165 -7.829 0
      vertex -3.084 -8.029 0
      vertex -3.165 -7.829 3.40919
    endloop
  endfacet
  facet normal -0.92687 -0.375382 0
    outer loop
      vertex -3.165 -7.829 3.40919
      vertex -3.084 -8.029 0
      vertex -3.084 -8.029 3.2394
    endloop
  endfacet
  facet normal -0.92687 -0.375382 0
    outer loop
      vertex -3.165 -7.829 3.40919
      vertex -3.084 -8.029 3.2394
      vertex -3.084 -8.029 3.40919
    endloop
  endfacet
  facet normal -0.924582 -0.380983 0
    outer loop
      vertex -3.084 -8.029 0
      vertex -3.002 -8.228 0
      vertex -3.084 -8.029 3.2394
    endloop
  endfacet
  facet normal -0.924582 -0.380983 0
    outer loop
      vertex -3.084 -8.029 3.2394
      vertex -3.002 -8.228 0
      vertex -3.002 -8.228 3.06554
    endloop
  endfacet
  facet normal -0.924582 -0.380983 0
    outer loop
      vertex -3.084 -8.029 3.2394
      vertex -3.002 -8.228 3.06554
      vertex -3.002 -8.228 3.2394
    endloop
  endfacet
  facet normal -0.919145 -0.393919 0
    outer loop
      vertex -3.002 -8.228 0
      vertex -2.918 -8.424 0
      vertex -3.002 -8.228 3.06554
    endloop
  endfacet
  facet normal -0.919145 -0.393919 0
    outer loop
      vertex -3.002 -8.228 3.06554
      vertex -2.918 -8.424 0
      vertex -2.918 -8.424 2.88881
    endloop
  endfacet
  facet normal -0.919145 -0.393919 0
    outer loop
      vertex -3.002 -8.228 3.06554
      vertex -2.918 -8.424 2.88881
      vertex -2.918 -8.424 3.06554
    endloop
  endfacet
  facet normal -0.908238 -0.418455 0
    outer loop
      vertex -2.918 -8.424 0
      vertex -2.83 -8.615 0
      vertex -2.918 -8.424 2.88881
    endloop
  endfacet
  facet normal -0.908238 -0.418455 0
    outer loop
      vertex -2.918 -8.424 2.88881
      vertex -2.83 -8.615 0
      vertex -2.83 -8.615 2.71048
    endloop
  endfacet
  facet normal -0.908238 -0.418455 0
    outer loop
      vertex -2.918 -8.424 2.88881
      vertex -2.83 -8.615 2.71048
      vertex -2.83 -8.615 2.88881
    endloop
  endfacet
  facet normal -0.893459 -0.449144 0
    outer loop
      vertex -2.83 -8.615 0
      vertex -2.737 -8.8 0
      vertex -2.83 -8.615 2.71048
    endloop
  endfacet
  facet normal -0.893459 -0.449144 0
    outer loop
      vertex -2.83 -8.615 2.71048
      vertex -2.737 -8.8 0
      vertex -2.737 -8.8 2.53187
    endloop
  endfacet
  facet normal -0.893459 -0.449144 0
    outer loop
      vertex -2.83 -8.615 2.71048
      vertex -2.737 -8.8 2.53187
      vertex -2.737 -8.8 2.71048
    endloop
  endfacet
  facet normal -0.876008 -0.482297 0
    outer loop
      vertex -2.737 -8.8 0
      vertex -2.639 -8.978 0
      vertex -2.737 -8.8 2.53187
    endloop
  endfacet
  facet normal -0.876008 -0.482297 0
    outer loop
      vertex -2.737 -8.8 2.53187
      vertex -2.639 -8.978 0
      vertex -2.639 -8.978 2.35439
    endloop
  endfacet
  facet normal -0.876008 -0.482297 0
    outer loop
      vertex -2.737 -8.8 2.53187
      vertex -2.639 -8.978 2.35439
      vertex -2.639 -8.978 2.53187
    endloop
  endfacet
  facet normal -0.847152 -0.53135 0
    outer loop
      vertex -2.639 -8.978 0
      vertex -2.533 -9.147 0
      vertex -2.639 -8.978 2.35439
    endloop
  endfacet
  facet normal -0.847152 -0.53135 0
    outer loop
      vertex -2.639 -8.978 2.35439
      vertex -2.533 -9.147 0
      vertex -2.533 -9.147 2.17951
    endloop
  endfacet
  facet normal -0.847152 -0.53135 0
    outer loop
      vertex -2.639 -8.978 2.35439
      vertex -2.533 -9.147 2.17951
      vertex -2.533 -9.147 2.35439
    endloop
  endfacet
  facet normal -0.81095 -0.585116 0
    outer loop
      vertex -2.533 -9.147 0
      vertex -2.419 -9.305 0
      vertex -2.533 -9.147 2.17951
    endloop
  endfacet
  facet normal -0.81095 -0.585116 0
    outer loop
      vertex -2.533 -9.147 2.17951
      vertex -2.419 -9.305 0
      vertex -2.419 -9.305 2.00876
    endloop
  endfacet
  facet normal -0.81095 -0.585116 0
    outer loop
      vertex -2.533 -9.147 2.17951
      vertex -2.419 -9.305 2.00876
      vertex -2.419 -9.305 2.17951
    endloop
  endfacet
  facet normal -0.761811 -0.647799 0
    outer loop
      vertex -2.419 -9.305 0
      vertex -2.294 -9.452 0
      vertex -2.419 -9.305 2.00876
    endloop
  endfacet
  facet normal -0.761811 -0.647799 0
    outer loop
      vertex -2.419 -9.305 2.00876
      vertex -2.294 -9.452 0
      vertex -2.294 -9.452 1.84377
    endloop
  endfacet
  facet normal -0.761811 -0.647799 0
    outer loop
      vertex -2.419 -9.305 2.00876
      vertex -2.294 -9.452 1.84377
      vertex -2.294 -9.452 2.00876
    endloop
  endfacet
  facet normal -0.699236 -0.714891 0
    outer loop
      vertex -2.294 -9.452 1.84377
      vertex -2.294 -9.452 0
      vertex -2.157 -9.586 0
    endloop
  endfacet
  facet normal -0.699236 -0.714891 0
    outer loop
      vertex -2.157 -9.586 1.84377
      vertex -2.294 -9.452 1.84377
      vertex -2.157 -9.586 1.68622
    endloop
  endfacet
  facet normal -0.699236 -0.714891 0
    outer loop
      vertex -2.157 -9.586 1.68622
      vertex -2.294 -9.452 1.84377
      vertex -2.157 -9.586 0
    endloop
  endfacet
  facet normal -0.620838 -0.783939 0
    outer loop
      vertex -2.157 -9.586 1.68622
      vertex -2.157 -9.586 0
      vertex -2.008 -9.704 0
    endloop
  endfacet
  facet normal -0.620838 -0.783939 0
    outer loop
      vertex -2.008 -9.704 1.68622
      vertex -2.157 -9.586 1.68622
      vertex -2.008 -9.704 1.53784
    endloop
  endfacet
  facet normal -0.620838 -0.783939 0
    outer loop
      vertex -2.008 -9.704 1.53784
      vertex -2.157 -9.586 1.68622
      vertex -2.008 -9.704 0
    endloop
  endfacet
  facet normal -0.522077 -0.852898 0
    outer loop
      vertex -2.008 -9.704 1.53784
      vertex -2.008 -9.704 0
      vertex -1.843 -9.805 0
    endloop
  endfacet
  facet normal -0.522077 -0.852898 0
    outer loop
      vertex -1.843 -9.805 1.53784
      vertex -2.008 -9.704 1.53784
      vertex -1.843 -9.805 1.40048
    endloop
  endfacet
  facet normal -0.522077 -0.852898 0
    outer loop
      vertex -1.843 -9.805 1.40048
      vertex -2.008 -9.704 1.53784
      vertex -1.843 -9.805 0
    endloop
  endfacet
  facet normal -0.412665 -0.910883 0
    outer loop
      vertex -1.843 -9.805 1.40048
      vertex -1.843 -9.805 0
      vertex -1.662 -9.887 0
    endloop
  endfacet
  facet normal -0.412665 -0.910883 0
    outer loop
      vertex -1.662 -9.887 1.40048
      vertex -1.843 -9.805 1.40048
      vertex -1.662 -9.887 1.27602
    endloop
  endfacet
  facet normal -0.412665 -0.910883 0
    outer loop
      vertex -1.662 -9.887 1.27602
      vertex -1.843 -9.805 1.40048
      vertex -1.662 -9.887 0
    endloop
  endfacet
  facet normal -0.291732 -0.9565 0
    outer loop
      vertex -1.662 -9.887 1.27602
      vertex -1.662 -9.887 0
      vertex -1.462 -9.948 0
    endloop
  endfacet
  facet normal -0.291732 -0.9565 0
    outer loop
      vertex -1.462 -9.948 1.27602
      vertex -1.662 -9.887 1.27602
      vertex -1.462 -9.948 1.16641
    endloop
  endfacet
  facet normal -0.291732 -0.9565 0
    outer loop
      vertex -1.462 -9.948 1.16641
      vertex -1.662 -9.887 1.27602
      vertex -1.462 -9.948 0
    endloop
  endfacet
  facet normal -0.174551 -0.984648 0
    outer loop
      vertex -1.462 -9.948 1.16641
      vertex -1.462 -9.948 0
      vertex -1.242 -9.987 0
    endloop
  endfacet
  facet normal -0.174551 -0.984648 0
    outer loop
      vertex -1.242 -9.987 1.16641
      vertex -1.462 -9.948 1.16641
      vertex -1.242 -9.987 1.07371
    endloop
  endfacet
  facet normal -0.174551 -0.984648 0
    outer loop
      vertex -1.242 -9.987 1.07371
      vertex -1.462 -9.948 1.16641
      vertex -1.242 -9.987 0
    endloop
  endfacet
  facet normal -0.0536417 -0.99856 0
    outer loop
      vertex -1.242 -9.987 1.07371
      vertex -1.242 -9.987 0
      vertex -1 -10 0
    endloop
  endfacet
  facet normal -0.0536417 -0.99856 0
    outer loop
      vertex -1 -10 1.07371
      vertex -1.242 -9.987 1.07371
      vertex -1 -10 0
    endloop
  endfacet
  facet normal 1 0 0
    outer loop
      vertex -1 -10 1.07371
      vertex -1 -10 0
      vertex -1 -1 0
    endloop
  endfacet
  facet normal 1 0 0
    outer loop
      vertex -1 -1 1.07371
      vertex -1 -10 1.07371
      vertex -1 -1 1
    endloop
  endfacet
  facet normal 1 0 0
    outer loop
      vertex -1 -1 1
      vertex -1 -10 1.07371
      vertex -1 -1 0
    endloop
  endfacet
  facet normal 0 0 1
    outer loop
      vertex -1 -1 1.07371
      vertex -9.987 -1.303 1.07371
      vertex -9.948 -1.577 1.07371
    endloop
  endfacet
  facet normal 0 0 1
    outer loop
      vertex -1 -1 1.07371
      vertex -1.242 -9.987 1.07371
      vertex -1 -10 1.07371
    endloop
  endfacet
  facet normal 0.999638 -0.026918 0
    outer loop
      vertex -1.242 -9.987 1.16641
      vertex -1.242 -9.987 1.07371
      vertex -1 -1 1.07371
    endloop
  endfacet
  facet normal 0.999638 -0.026918 0
    outer loop
      vertex -1 -1 1.16641
      vertex -1.242 -9.987 1.16641
      vertex -1 -1 1.07371
    endloop
  endfacet
  facet normal -0.06435 0.997927 0
    outer loop
      vertex -1 -1 1.16641
      vertex -1 -1 1.07371
      vertex -9.948 -1.577 1.16641
    endloop
  endfacet
  facet normal -0.06435 0.997927 0
    outer loop
      vertex -9.948 -1.577 1.16641
      vertex -1 -1 1.07371
      vertex -9.948 -1.577 1.07371
    endloop
  endfacet
  facet normal 0 0 1
    outer loop
      vertex -1 -1 1.16641
      vertex -9.948 -1.577 1.16641
      vertex -9.887 -1.826 1.16641
    endloop
  endfacet
  facet normal -0.0925459 0.995708 0
    outer loop
      vertex -1 -1 1.27602
      vertex -1 -1 1.16641
      vertex -9.887 -1.826 1.27602
    endloop
  endfacet
  facet normal -0.0925459 0.995708 0
    outer loop
      vertex -9.887 -1.826 1.27602
      vertex -1 -1 1.16641
      vertex -9.887 -1.826 1.16641
    endloop
  endfacet
  facet normal 0 0 1
    outer loop
      vertex -1 -1 1.27602
      vertex -9.887 -1.826 1.27602
      vertex -9.804 -2.052 1.27602
    endloop
  endfacet
  facet normal -0.118647 0.992936 0
    outer loop
      vertex -1 -1 1.40048
      vertex -1 -1 1.27602
      vertex -9.804 -2.052 1.40048
    endloop
  endfacet
  facet normal -0.118647 0.992936 0
    outer loop
      vertex -9.804 -2.052 1.40048
      vertex -1 -1 1.27602
      vertex -9.804 -2.052 1.27602
    endloop
  endfacet
  facet normal 0 0 1
    outer loop
      vertex -1 -1 1.40048
      vertex -9.804 -2.052 1.40048
      vertex -9.702 -2.255 1.40048
    endloop
  endfacet
  facet normal -0.142743 0.98976 0
    outer loop
      vertex -1 -1 1.53784
      vertex -1 -1 1.40048
      vertex -9.702 -2.255 1.53784
    endloop
  endfacet
  facet normal -0.142743 0.98976 0
    outer loop
      vertex -9.702 -2.255 1.53784
      vertex -1 -1 1.40048
      vertex -9.702 -2.255 1.40048
    endloop
  endfacet
  facet normal 0 0 1
    outer loop
      vertex -1 -1 1.53784
      vertex -9.702 -2.255 1.53784
      vertex -9.583 -2.44 1.53784
    endloop
  endfacet
  facet normal -0.165461 0.986216 0
    outer loop
      vertex -1 -1 1.68622
      vertex -1 -1 1.53784
      vertex -9.583 -2.44 1.68622
    endloop
  endfacet
  facet normal -0.165461 0.986216 0
    outer loop
      vertex -9.583 -2.44 1.68622
      vertex -1 -1 1.53784
      vertex -9.583 -2.44 1.53784
    endloop
  endfacet
  facet normal 0 0 1
    outer loop
      vertex -1 -1 1.68622
      vertex -9.583 -2.44 1.68622
      vertex -9.447 -2.606 1.68622
    endloop
  endfacet
  facet normal -0.186781 0.982402 0
    outer loop
      vertex -1 -1 1.84377
      vertex -1 -1 1.68622
      vertex -9.447 -2.606 1.84377
    endloop
  endfacet
  facet normal -0.186781 0.982402 0
    outer loop
      vertex -9.447 -2.606 1.84377
      vertex -1 -1 1.68622
      vertex -9.447 -2.606 1.68622
    endloop
  endfacet
  facet normal 0 0 1
    outer loop
      vertex -1 -1 1.84377
      vertex -9.447 -2.606 1.84377
      vertex -9.298 -2.757 1.84377
    endloop
  endfacet
  facet normal -0.207145 0.97831 0
    outer loop
      vertex -1 -1 2.00876
      vertex -1 -1 1.84377
      vertex -9.298 -2.757 2.00876
    endloop
  endfacet
  facet normal -0.207145 0.97831 0
    outer loop
      vertex -9.298 -2.757 2.00876
      vertex -1 -1 1.84377
      vertex -9.298 -2.757 1.84377
    endloop
  endfacet
  facet normal 0 0 1
    outer loop
      vertex -1 -1 2.00876
      vertex -9.298 -2.757 2.00876
      vertex -9.137 -2.893 2.00876
    endloop
  endfacet
  facet normal -0.22659 0.97399 0
    outer loop
      vertex -1 -1 2.17951
      vertex -1 -1 2.00876
      vertex -9.137 -2.893 2.17951
    endloop
  endfacet
  facet normal -0.22659 0.97399 0
    outer loop
      vertex -9.137 -2.893 2.17951
      vertex -1 -1 2.00876
      vertex -9.137 -2.893 2.00876
    endloop
  endfacet
  facet normal 0 0 1
    outer loop
      vertex -1 -1 2.17951
      vertex -9.137 -2.893 2.17951
      vertex -8.964 -3.017 2.17951
    endloop
  endfacet
  facet normal -0.245513 0.969393 0
    outer loop
      vertex -1 -1 2.35439
      vertex -1 -1 2.17951
      vertex -8.964 -3.017 2.35439
    endloop
  endfacet
  facet normal -0.245513 0.969393 0
    outer loop
      vertex -8.964 -3.017 2.35439
      vertex -1 -1 2.17951
      vertex -8.964 -3.017 2.17951
    endloop
  endfacet
  facet normal 0 0 1
    outer loop
      vertex -1 -1 2.35439
      vertex -8.964 -3.017 2.35439
      vertex -8.782 -3.13 2.35439
    endloop
  endfacet
  facet normal -0.263998 0.964523 0
    outer loop
      vertex -1 -1 2.53187
      vertex -1 -1 2.35439
      vertex -8.782 -3.13 2.53187
    endloop
  endfacet
  facet normal -0.263998 0.964523 0
    outer loop
      vertex -8.782 -3.13 2.53187
      vertex -1 -1 2.35439
      vertex -8.782 -3.13 2.35439
    endloop
  endfacet
  facet normal 0 0 1
    outer loop
      vertex -1 -1 2.53187
      vertex -8.782 -3.13 2.53187
      vertex -8.592 -3.234 2.53187
    endloop
  endfacet
  facet normal -0.282289 0.959329 0
    outer loop
      vertex -1 -1 2.71048
      vertex -1 -1 2.53187
      vertex -8.592 -3.234 2.71048
    endloop
  endfacet
  facet normal -0.282289 0.959329 0
    outer loop
      vertex -8.592 -3.234 2.71048
      vertex -1 -1 2.53187
      vertex -8.592 -3.234 2.53187
    endloop
  endfacet
  facet normal 0 0 1
    outer loop
      vertex -1 -1 2.71048
      vertex -8.592 -3.234 2.71048
      vertex -8.396 -3.33 2.71048
    endloop
  endfacet
  facet normal -0.300477 0.953789 0
    outer loop
      vertex -1 -1 2.88881
      vertex -1 -1 2.71048
      vertex -8.396 -3.33 2.88881
    endloop
  endfacet
  facet normal -0.300477 0.953789 0
    outer loop
      vertex -8.396 -3.33 2.88881
      vertex -1 -1 2.71048
      vertex -8.396 -3.33 2.71048
    endloop
  endfacet
  facet normal 0 0 1
    outer loop
      vertex -1 -1 2.88881
      vertex -8.396 -3.33 2.88881
      vertex -8.194 -3.42 2.88881
    endloop
  endfacet
  facet normal -0.318835 0.94781 0
    outer loop
      vertex -1 -1 3.06554
      vertex -1 -1 2.88881
      vertex -8.194 -3.42 3.06554
    endloop
  endfacet
  facet normal -0.318835 0.94781 0
    outer loop
      vertex -8.194 -3.42 3.06554
      vertex -1 -1 2.88881
      vertex -8.194 -3.42 2.88881
    endloop
  endfacet
  facet normal 0 0 1
    outer loop
      vertex -1 -1 3.06554
      vertex -8.194 -3.42 3.06554
      vertex -7.988 -3.505 3.06554
    endloop
  endfacet
  facet normal -0.337446 0.941345 0
    outer loop
      vertex -1 -1 3.2394
      vertex -1 -1 3.06554
      vertex -7.988 -3.505 3.2394
    endloop
  endfacet
  facet normal -0.337446 0.941345 0
    outer loop
      vertex -7.988 -3.505 3.2394
      vertex -1 -1 3.06554
      vertex -7.988 -3.505 3.06554
    endloop
  endfacet
  facet normal 0 0 1
    outer loop
      vertex -1 -1 3.2394
      vertex -7.988 -3.505 3.2394
      vertex -7.78 -3.586 3.2394
    endloop
  endfacet
  facet normal -0.356374 0.934344 0
    outer loop
      vertex -1 -1 3.40919
      vertex -1 -1 3.2394
      vertex -7.78 -3.586 3.40919
    endloop
  endfacet
  facet normal -0.356374 0.934344 0
    outer loop
      vertex -7.78 -3.586 3.40919
      vertex -1 -1 3.2394
      vertex -7.78 -3.586 3.2394
    endloop
  endfacet
  facet normal 0 0 1
    outer loop
      vertex -1 -1 3.40919
      vertex -7.78 -3.586 3.40919
      vertex -7.569 -3.665 3.40919
    endloop
  endfacet
  facet normal -0.375934 0.926646 0
    outer loop
      vertex -1 -1 3.57381
      vertex -1 -1 3.40919
      vertex -7.569 -3.665 3.57381
    endloop
  endfacet
  facet normal -0.375934 0.926646 0
    outer loop
      vertex -7.569 -3.665 3.57381
      vertex -1 -1 3.40919
      vertex -7.569 -3.665 3.40919
    endloop
  endfacet
  facet normal 0 0 1
    outer loop
      vertex -1 -1 3.57381
      vertex -7.569 -3.665 3.57381
      vertex -7.358 -3.742 3.57381
    endloop
  endfacet
  facet normal -0.39601 0.918246 0
    outer loop
      vertex -1 -1 3.73219
      vertex -1 -1 3.57381
      vertex -7.358 -3.742 3.73219
    endloop
  endfacet
  facet normal -0.39601 0.918246 0
    outer loop
      vertex -7.358 -3.742 3.73219
      vertex -1 -1 3.57381
      vertex -7.358 -3.742 3.57381
    endloop
  endfacet
  facet normal 0 0 1
    outer loop
      vertex -1 -1 3.73219
      vertex -7.358 -3.742 3.73219
      vertex -7.147 -3.819 3.73219
    endloop
  endfacet
  facet normal -0.416853 0.908974 0
    outer loop
      vertex -1 -1 3.88337
      vertex -1 -1 3.73219
      vertex -7.147 -3.819 3.88337
    endloop
  endfacet
  facet normal -0.416853 0.908974 0
    outer loop
      vertex -7.147 -3.819 3.88337
      vertex -1 -1 3.73219
      vertex -7.147 -3.819 3.73219
    endloop
  endfacet
  facet normal 0 0 1
    outer loop
      vertex -1 -1 3.88337
      vertex -7.147 -3.819 3.88337
      vertex -6.937 -3.896 3.88337
    endloop
  endfacet
  facet normal -0.438412 0.898774 0
    outer loop
      vertex -1 -1 4.02641
      vertex -1 -1 3.88337
      vertex -6.937 -3.896 4.02641
    endloop
  endfacet
  facet normal -0.438412 0.898774 0
    outer loop
      vertex -6.937 -3.896 4.02641
      vertex -1 -1 3.88337
      vertex -6.937 -3.896 3.88337
    endloop
  endfacet
  facet normal 0 0 1
    outer loop
      vertex -1 -1 4.02641
      vertex -6.937 -3.896 4.02641
      vertex -6.728 -3.975 4.02641
    endloop
  endfacet
  facet normal -0.460919 0.887442 0
    outer loop
      vertex -1 -1 4.16049
      vertex -1 -1 4.02641
      vertex -6.728 -3.975 4.16049
    endloop
  endfacet
  facet normal -0.460919 0.887442 0
    outer loop
      vertex -6.728 -3.975 4.16049
      vertex -1 -1 4.02641
      vertex -6.728 -3.975 4.02641
    endloop
  endfacet
  facet normal 0 0 1
    outer loop
      vertex -1 -1 4.16049
      vertex -6.728 -3.975 4.16049
      vertex -6.523 -4.057 4.16049
    endloop
  endfacet
  facet normal -0.48427 0.874918 0
    outer loop
      vertex -1 -1 4.28484
      vertex -1 -1 4.16049
      vertex -6.523 -4.057 4.28484
    endloop
  endfacet
  facet normal -0.48427 0.874918 0
    outer loop
      vertex -6.523 -4.057 4.28484
      vertex -1 -1 4.16049
      vertex -6.523 -4.057 4.16049
    endloop
  endfacet
  facet normal 0 0 1
    outer loop
      vertex -1 -1 4.28484
      vertex -6.523 -4.057 4.28484
      vertex -6.321 -4.141 4.28484
    endloop
  endfacet
  facet normal -0.508342 0.861155 0
    outer loop
      vertex -1 -1 4.39875
      vertex -1 -1 4.28484
      vertex -6.321 -4.141 4.39875
    endloop
  endfacet
  facet normal -0.508342 0.861155 0
    outer loop
      vertex -6.321 -4.141 4.39875
      vertex -1 -1 4.28484
      vertex -6.321 -4.141 4.28484
    endloop
  endfacet
  facet normal 0 0 1
    outer loop
      vertex -1 -1 4.39875
      vertex -6.321 -4.141 4.39875
      vertex -6.123 -4.229 4.39875
    endloop
  endfacet
  facet normal -0.533216 0.845979 0
    outer loop
      vertex -1 -1 4.50159
      vertex -1 -1 4.39875
      vertex -6.123 -4.229 4.50159
    endloop
  endfacet
  facet normal -0.533216 0.845979 0
    outer loop
      vertex -6.123 -4.229 4.50159
      vertex -1 -1 4.39875
      vertex -6.123 -4.229 4.39875
    endloop
  endfacet
  facet normal 0 0 1
    outer loop
      vertex -1 -1 4.50159
      vertex -6.123 -4.229 4.50159
      vertex -5.929 -4.322 4.50159
    endloop
  endfacet
  facet normal -0.558886 0.829244 0
    outer loop
      vertex -1 -1 4.5928
      vertex -1 -1 4.50159
      vertex -5.929 -4.322 4.5928
    endloop
  endfacet
  facet normal -0.558886 0.829244 0
    outer loop
      vertex -5.929 -4.322 4.5928
      vertex -1 -1 4.50159
      vertex -5.929 -4.322 4.50159
    endloop
  endfacet
  facet normal 0 0 1
    outer loop
      vertex -1 -1 4.5928
      vertex -5.929 -4.322 4.5928
      vertex -5.741 -4.419 4.5928
    endloop
  endfacet
  facet normal -0.584922 0.81109 0
    outer loop
      vertex -1 -1 4.67189
      vertex -1 -1 4.5928
      vertex -5.741 -4.419 4.67189
    endloop
  endfacet
  facet normal -0.584922 0.81109 0
    outer loop
      vertex -5.741 -4.419 4.67189
      vertex -1 -1 4.5928
      vertex -5.741 -4.419 4.5928
    endloop
  endfacet
  facet normal 0 0 1
    outer loop
      vertex -1 -1 4.67189
      vertex -5.741 -4.419 4.67189
      vertex -5.558 -4.522 4.67189
    endloop
  endfacet
  facet normal -0.611438 0.791293 0
    outer loop
      vertex -1 -1 4.73844
      vertex -1 -1 4.67189
      vertex -5.558 -4.522 4.73844
    endloop
  endfacet
  facet normal -0.611438 0.791293 0
    outer loop
      vertex -5.558 -4.522 4.73844
      vertex -1 -1 4.67189
      vertex -5.558 -4.522 4.67189
    endloop
  endfacet
  facet normal 0 0 1
    outer loop
      vertex -1 -1 4.73844
      vertex -5.558 -4.522 4.73844
      vertex -5.381 -4.631 4.73844
    endloop
  endfacet
  facet normal -0.638125 0.769933 0
    outer loop
      vertex -1 -1 4.7921
      vertex -1 -1 4.73844
      vertex -5.381 -4.631 4.7921
    endloop
  endfacet
  facet normal -0.638125 0.769933 0
    outer loop
      vertex -5.381 -4.631 4.7921
      vertex -1 -1 4.73844
      vertex -5.381 -4.631 4.73844
    endloop
  endfacet
  facet normal 0 0 1
    outer loop
      vertex -1 -1 4.7921
      vertex -5.381 -4.631 4.7921
      vertex -5.211 -4.746 4.7921
    endloop
  endfacet
  facet normal -0.66465 0.747155 0
    outer loop
      vertex -1 -1 4.8326
      vertex -1 -1 4.7921
      vertex -5.211 -4.746 4.8326
    endloop
  endfacet
  facet normal -0.66465 0.747155 0
    outer loop
      vertex -5.211 -4.746 4.8326
      vertex -1 -1 4.7921
      vertex -5.211 -4.746 4.7921
    endloop
  endfacet
  facet normal 0 0 1
    outer loop
      vertex -1 -1 4.8326
      vertex -5.211 -4.746 4.8326
      vertex -5.046 -4.868 4.8326
    endloop
  endfacet
  facet normal -0.691028 0.722828 0
    outer loop
      vertex -1 -1 4.85971
      vertex -1 -1 4.8326
      vertex -5.046 -4.868 4.85971
    endloop
  endfacet
  facet normal -0.691028 0.722828 0
    outer loop
      vertex -5.046 -4.868 4.85971
      vertex -1 -1 4.8326
      vertex -5.046 -4.868 4.8326
    endloop
  endfacet
  facet normal 0 0 1
    outer loop
      vertex -1 -1 4.85971
      vertex -5.046 -4.868 4.85971
      vertex -4.889 -4.996 4.85971
    endloop
  endfacet
  facet normal -0.716636 0.697447 0
    outer loop
      vertex -1 -1 4.8733
      vertex -1 -1 4.85971
      vertex -4.889 -4.996 4.8733
    endloop
  endfacet
  facet normal -0.716636 0.697447 0
    outer loop
      vertex -4.889 -4.996 4.8733
      vertex -1 -1 4.85971
      vertex -4.889 -4.996 4.85971
    endloop
  endfacet
  facet normal 0 0 1
    outer loop
      vertex -1 -1 4.8733
      vertex -4.889 -4.996 4.8733
      vertex -4.738 -5.131 4.8733
    endloop
  endfacet
  facet normal 0 0 1
    outer loop
      vertex -4.594 -5.273 4.8733
      vertex -1 -1 4.8733
      vertex -4.738 -5.131 4.8733
    endloop
  endfacet
  facet normal 0.765292 -0.643683 0
    outer loop
      vertex -4.594 -5.273 4.8733
      vertex -4.594 -5.273 4.85971
      vertex -1 -1 4.85971
    endloop
  endfacet
  facet normal 0.765292 -0.643683 0
    outer loop
      vertex -1 -1 4.8733
      vertex -4.594 -5.273 4.8733
      vertex -1 -1 4.85971
    endloop
  endfacet
  facet normal 0 0 1
    outer loop
      vertex -1 -1 4.85971
      vertex -4.594 -5.273 4.85971
      vertex -4.457 -5.421 4.85971
    endloop
  endfacet
  facet normal 0.787757 -0.615986 0
    outer loop
      vertex -4.457 -5.421 4.85971
      vertex -4.457 -5.421 4.8326
      vertex -1 -1 4.8326
    endloop
  endfacet
  facet normal 0.787757 -0.615986 0
    outer loop
      vertex -1 -1 4.85971
      vertex -4.457 -5.421 4.85971
      vertex -1 -1 4.8326
    endloop
  endfacet
  facet normal 0 0 1
    outer loop
      vertex -1 -1 4.8326
      vertex -4.457 -5.421 4.8326
      vertex -4.326 -5.576 4.8326
    endloop
  endfacet
  facet normal 0.808904 -0.58794 0
    outer loop
      vertex -4.326 -5.576 4.8326
      vertex -4.326 -5.576 4.7921
      vertex -1 -1 4.7921
    endloop
  endfacet
  facet normal 0.808904 -0.58794 0
    outer loop
      vertex -1 -1 4.8326
      vertex -4.326 -5.576 4.8326
      vertex -1 -1 4.7921
    endloop
  endfacet
  facet normal 0 0 1
    outer loop
      vertex -1 -1 4.7921
      vertex -4.326 -5.576 4.7921
      vertex -4.202 -5.738 4.7921
    endloop
  endfacet
  facet normal 0.828536 -0.559935 0
    outer loop
      vertex -4.202 -5.738 4.7921
      vertex -4.202 -5.738 4.73844
      vertex -1 -1 4.73844
    endloop
  endfacet
  facet normal 0.828536 -0.559935 0
    outer loop
      vertex -1 -1 4.7921
      vertex -4.202 -5.738 4.7921
      vertex -1 -1 4.73844
    endloop
  endfacet
  facet normal 0 0 1
    outer loop
      vertex -1 -1 4.73844
      vertex -4.202 -5.738 4.73844
      vertex -4.085 -5.906 4.73844
    endloop
  endfacet
  facet normal 0.846541 -0.532323 0
    outer loop
      vertex -4.085 -5.906 4.73844
      vertex -4.085 -5.906 4.67189
      vertex -1 -1 4.67189
    endloop
  endfacet
  facet normal 0.846541 -0.532323 0
    outer loop
      vertex -1 -1 4.73844
      vertex -4.085 -5.906 4.73844
      vertex -1 -1 4.67189
    endloop
  endfacet
  facet normal 0 0 1
    outer loop
      vertex -1 -1 4.67189
      vertex -4.085 -5.906 4.67189
      vertex -3.973 -6.08 4.67189
    endloop
  endfacet
  facet normal 0.863063 -0.505096 0
    outer loop
      vertex -3.973 -6.08 4.67189
      vertex -3.973 -6.08 4.5928
      vertex -1 -1 4.5928
    endloop
  endfacet
  facet normal 0.863063 -0.505096 0
    outer loop
      vertex -1 -1 4.67189
      vertex -3.973 -6.08 4.67189
      vertex -1 -1 4.5928
    endloop
  endfacet
  facet normal 0 0 1
    outer loop
      vertex -1 -1 4.5928
      vertex -3.973 -6.08 4.5928
      vertex -3.868 -6.26 4.5928
    endloop
  endfacet
  facet normal 0.877972 -0.478712 0
    outer loop
      vertex -3.868 -6.26 4.5928
      vertex -3.868 -6.26 4.50159
      vertex -1 -1 4.50159
    endloop
  endfacet
  facet normal 0.877972 -0.478712 0
    outer loop
      vertex -1 -1 4.5928
      vertex -3.868 -6.26 4.5928
      vertex -1 -1 4.50159
    endloop
  endfacet
  facet normal 0 0 1
    outer loop
      vertex -1 -1 4.50159
      vertex -3.868 -6.26 4.50159
      vertex -3.767 -6.444 4.50159
    endloop
  endfacet
  facet normal 0.89146 -0.453099 0
    outer loop
      vertex -3.767 -6.444 4.50159
      vertex -3.767 -6.444 4.39875
      vertex -1 -1 4.39875
    endloop
  endfacet
  facet normal 0.89146 -0.453099 0
    outer loop
      vertex -1 -1 4.50159
      vertex -3.767 -6.444 4.50159
      vertex -1 -1 4.39875
    endloop
  endfacet
  facet normal 0 0 1
    outer loop
      vertex -1 -1 4.39875
      vertex -3.767 -6.444 4.39875
      vertex -3.672 -6.634 4.39875
    endloop
  endfacet
  facet normal 0.903535 -0.428514 0
    outer loop
      vertex -3.672 -6.634 4.39875
      vertex -3.672 -6.634 4.28484
      vertex -1 -1 4.28484
    endloop
  endfacet
  facet normal 0.903535 -0.428514 0
    outer loop
      vertex -1 -1 4.39875
      vertex -3.672 -6.634 4.39875
      vertex -1 -1 4.28484
    endloop
  endfacet
  facet normal 0 0 1
    outer loop
      vertex -1 -1 4.28484
      vertex -3.672 -6.634 4.28484
      vertex -3.58 -6.827 4.28484
    endloop
  endfacet
  facet normal 0.91438 -0.404857 0
    outer loop
      vertex -3.58 -6.827 4.28484
      vertex -3.58 -6.827 4.16049
      vertex -1 -1 4.16049
    endloop
  endfacet
  facet normal 0.91438 -0.404857 0
    outer loop
      vertex -1 -1 4.28484
      vertex -3.58 -6.827 4.28484
      vertex -1 -1 4.16049
    endloop
  endfacet
  facet normal 0 0 1
    outer loop
      vertex -1 -1 4.16049
      vertex -3.58 -6.827 4.16049
      vertex -3.493 -7.024 4.16049
    endloop
  endfacet
  facet normal 0.924 -0.382392 0
    outer loop
      vertex -3.493 -7.024 4.16049
      vertex -3.493 -7.024 4.02641
      vertex -1 -1 4.02641
    endloop
  endfacet
  facet normal 0.924 -0.382392 0
    outer loop
      vertex -1 -1 4.16049
      vertex -3.493 -7.024 4.16049
      vertex -1 -1 4.02641
    endloop
  endfacet
  facet normal 0 0 1
    outer loop
      vertex -1 -1 4.02641
      vertex -3.493 -7.024 4.02641
      vertex -3.408 -7.223 4.02641
    endloop
  endfacet
  facet normal 0.932614 -0.360876 0
    outer loop
      vertex -3.408 -7.223 4.02641
      vertex -3.408 -7.223 3.88337
      vertex -1 -1 3.88337
    endloop
  endfacet
  facet normal 0.932614 -0.360876 0
    outer loop
      vertex -1 -1 4.02641
      vertex -3.408 -7.223 4.02641
      vertex -1 -1 3.88337
    endloop
  endfacet
  facet normal 0 0 1
    outer loop
      vertex -1 -1 3.88337
      vertex -3.408 -7.223 3.88337
      vertex -3.326 -7.424 3.88337
    endloop
  endfacet
  facet normal 0.940263 -0.34045 0
    outer loop
      vertex -3.326 -7.424 3.88337
      vertex -3.326 -7.424 3.73219
      vertex -1 -1 3.73219
    endloop
  endfacet
  facet normal 0.940263 -0.34045 0
    outer loop
      vertex -1 -1 3.88337
      vertex -3.326 -7.424 3.88337
      vertex -1 -1 3.73219
    endloop
  endfacet
  facet normal 0 0 1
    outer loop
      vertex -1 -1 3.73219
      vertex -3.326 -7.424 3.73219
      vertex -3.245 -7.626 3.73219
    endloop
  endfacet
  facet normal 0.947114 -0.320898 0
    outer loop
      vertex -3.245 -7.626 3.73219
      vertex -3.245 -7.626 3.57381
      vertex -1 -1 3.57381
    endloop
  endfacet
  facet normal 0.947114 -0.320898 0
    outer loop
      vertex -1 -1 3.73219
      vertex -3.245 -7.626 3.73219
      vertex -1 -1 3.57381
    endloop
  endfacet
  facet normal 0 0 1
    outer loop
      vertex -1 -1 3.57381
      vertex -3.245 -7.626 3.57381
      vertex -3.165 -7.829 3.57381
    endloop
  endfacet
  facet normal 0.953242 -0.302207 0
    outer loop
      vertex -3.165 -7.829 3.57381
      vertex -3.165 -7.829 3.40919
      vertex -1 -1 3.40919
    endloop
  endfacet
  facet normal 0.953242 -0.302207 0
    outer loop
      vertex -1 -1 3.57381
      vertex -3.165 -7.829 3.57381
      vertex -1 -1 3.40919
    endloop
  endfacet
  facet normal 0 0 1
    outer loop
      vertex -1 -1 3.40919
      vertex -3.165 -7.829 3.40919
      vertex -3.084 -8.029 3.40919
    endloop
  endfacet
  facet normal 0.958749 -0.284256 0
    outer loop
      vertex -3.084 -8.029 3.40919
      vertex -3.084 -8.029 3.2394
      vertex -1 -1 3.2394
    endloop
  endfacet
  facet normal 0.958749 -0.284256 0
    outer loop
      vertex -1 -1 3.40919
      vertex -3.084 -8.029 3.40919
      vertex -1 -1 3.2394
    endloop
  endfacet
  facet normal 0 0 1
    outer loop
      vertex -1 -1 3.2394
      vertex -3.084 -8.029 3.2394
      vertex -3.002 -8.228 3.2394
    endloop
  endfacet
  facet normal 0.963716 -0.266929 0
    outer loop
      vertex -3.002 -8.228 3.2394
      vertex -3.002 -8.228 3.06554
      vertex -1 -1 3.06554
    endloop
  endfacet
  facet normal 0.963716 -0.266929 0
    outer loop
      vertex -1 -1 3.2394
      vertex -3.002 -8.228 3.2394
      vertex -1 -1 3.06554
    endloop
  endfacet
  facet normal 0 0 1
    outer loop
      vertex -1 -1 3.06554
      vertex -3.002 -8.228 3.06554
      vertex -2.918 -8.424 3.06554
    endloop
  endfacet
  facet normal 0.96821 -0.250138 0
    outer loop
      vertex -2.918 -8.424 3.06554
      vertex -2.918 -8.424 2.88881
      vertex -1 -1 2.88881
    endloop
  endfacet
  facet normal 0.96821 -0.250138 0
    outer loop
      vertex -1 -1 3.06554
      vertex -2.918 -8.424 3.06554
      vertex -1 -1 2.88881
    endloop
  endfacet
  facet normal 0 0 1
    outer loop
      vertex -1 -1 2.88881
      vertex -2.918 -8.424 2.88881
      vertex -2.83 -8.615 2.88881
    endloop
  endfacet
  facet normal 0.972318 -0.233663 0
    outer loop
      vertex -2.83 -8.615 2.88881
      vertex -2.83 -8.615 2.71048
      vertex -1 -1 2.71048
    endloop
  endfacet
  facet normal 0.972318 -0.233663 0
    outer loop
      vertex -1 -1 2.88881
      vertex -2.83 -8.615 2.88881
      vertex -1 -1 2.71048
    endloop
  endfacet
  facet normal 0 0 1
    outer loop
      vertex -1 -1 2.71048
      vertex -2.83 -8.615 2.71048
      vertex -2.737 -8.8 2.71048
    endloop
  endfacet
  facet normal 0.97609 -0.217368 0
    outer loop
      vertex -2.737 -8.8 2.71048
      vertex -2.737 -8.8 2.53187
      vertex -1 -1 2.53187
    endloop
  endfacet
  facet normal 0.97609 -0.217368 0
    outer loop
      vertex -1 -1 2.71048
      vertex -2.737 -8.8 2.71048
      vertex -1 -1 2.53187
    endloop
  endfacet
  facet normal 0 0 1
    outer loop
      vertex -1 -1 2.53187
      vertex -2.737 -8.8 2.53187
      vertex -2.639 -8.978 2.53187
    endloop
  endfacet
  facet normal 0.979543 -0.201237 0
    outer loop
      vertex -2.639 -8.978 2.53187
      vertex -2.639 -8.978 2.35439
      vertex -1 -1 2.35439
    endloop
  endfacet
  facet normal 0.979543 -0.201237 0
    outer loop
      vertex -1 -1 2.53187
      vertex -2.639 -8.978 2.53187
      vertex -1 -1 2.35439
    endloop
  endfacet
  facet normal 0 0 1
    outer loop
      vertex -1 -1 2.35439
      vertex -2.639 -8.978 2.35439
      vertex -2.533 -9.147 2.35439
    endloop
  endfacet
  facet normal 0.982753 -0.184922 0
    outer loop
      vertex -2.533 -9.147 2.35439
      vertex -2.533 -9.147 2.17951
      vertex -1 -1 2.17951
    endloop
  endfacet
  facet normal 0.982753 -0.184922 0
    outer loop
      vertex -1 -1 2.35439
      vertex -2.533 -9.147 2.35439
      vertex -1 -1 2.17951
    endloop
  endfacet
  facet normal 0 0 1
    outer loop
      vertex -1 -1 2.17951
      vertex -2.533 -9.147 2.17951
      vertex -2.419 -9.305 2.17951
    endloop
  endfacet
  facet normal 0.985715 -0.16842 0
    outer loop
      vertex -2.419 -9.305 2.17951
      vertex -2.419 -9.305 2.00876
      vertex -1 -1 2.00876
    endloop
  endfacet
  facet normal 0.985715 -0.16842 0
    outer loop
      vertex -1 -1 2.17951
      vertex -2.419 -9.305 2.17951
      vertex -1 -1 2.00876
    endloop
  endfacet
  facet normal 0 0 1
    outer loop
      vertex -1 -1 2.00876
      vertex -2.419 -9.305 2.00876
      vertex -2.294 -9.452 2.00876
    endloop
  endfacet
  facet normal 0.988482 -0.151337 0
    outer loop
      vertex -2.294 -9.452 2.00876
      vertex -2.294 -9.452 1.84377
      vertex -1 -1 1.84377
    endloop
  endfacet
  facet normal 0.988482 -0.151337 0
    outer loop
      vertex -1 -1 2.00876
      vertex -2.294 -9.452 2.00876
      vertex -1 -1 1.84377
    endloop
  endfacet
  facet normal 0 0 1
    outer loop
      vertex -1 -1 1.84377
      vertex -2.294 -9.452 1.84377
      vertex -2.157 -9.586 1.84377
    endloop
  endfacet
  facet normal 0.991042 -0.133547 0
    outer loop
      vertex -2.157 -9.586 1.84377
      vertex -2.157 -9.586 1.68622
      vertex -1 -1 1.68622
    endloop
  endfacet
  facet normal 0.991042 -0.133547 0
    outer loop
      vertex -1 -1 1.84377
      vertex -2.157 -9.586 1.84377
      vertex -1 -1 1.68622
    endloop
  endfacet
  facet normal 0 0 1
    outer loop
      vertex -1 -1 1.68622
      vertex -2.157 -9.586 1.68622
      vertex -2.008 -9.704 1.68622
    endloop
  endfacet
  facet normal 0.993361 -0.11504 0
    outer loop
      vertex -2.008 -9.704 1.68622
      vertex -2.008 -9.704 1.53784
      vertex -1 -1 1.53784
    endloop
  endfacet
  facet normal 0.993361 -0.11504 0
    outer loop
      vertex -1 -1 1.68622
      vertex -2.008 -9.704 1.68622
      vertex -1 -1 1.53784
    endloop
  endfacet
  facet normal 0 0 1
    outer loop
      vertex -1 -1 1.53784
      vertex -2.008 -9.704 1.53784
      vertex -1.843 -9.805 1.53784
    endloop
  endfacet
  facet normal 0.995448 -0.0953053 0
    outer loop
      vertex -1.843 -9.805 1.53784
      vertex -1.843 -9.805 1.40048
      vertex -1 -1 1.40048
    endloop
  endfacet
  facet normal 0.995448 -0.0953053 0
    outer loop
      vertex -1 -1 1.53784
      vertex -1.843 -9.805 1.53784
      vertex -1 -1 1.40048
    endloop
  endfacet
  facet normal 0 0 1
    outer loop
      vertex -1 -1 1.40048
      vertex -1.843 -9.805 1.40048
      vertex -1.662 -9.887 1.40048
    endloop
  endfacet
  facet normal 0.997237 -0.074285 0
    outer loop
      vertex -1.662 -9.887 1.40048
      vertex -1.662 -9.887 1.27602
      vertex -1 -1 1.27602
    endloop
  endfacet
  facet normal 0.997237 -0.074285 0
    outer loop
      vertex -1 -1 1.40048
      vertex -1.662 -9.887 1.40048
      vertex -1 -1 1.27602
    endloop
  endfacet
  facet normal 0 0 1
    outer loop
      vertex -1 -1 1.27602
      vertex -1.662 -9.887 1.27602
      vertex -1.462 -9.948 1.27602
    endloop
  endfacet
  facet normal 0.99867 -0.051563 0
    outer loop
      vertex -1.462 -9.948 1.27602
      vertex -1.462 -9.948 1.16641
      vertex -1 -1 1.16641
    endloop
  endfacet
  facet normal 0.99867 -0.051563 0
    outer loop
      vertex -1 -1 1.27602
      vertex -1.462 -9.948 1.27602
      vertex -1 -1 1.16641
    endloop
  endfacet
  facet normal 0 0 1
    outer loop
      vertex -1 -1 1.16641
      vertex -1.462 -9.948 1.16641
      vertex -1.242 -9.987 1.16641
    endloop
  endfacet
endsolid OpenSCAD_Model
